<?xml version="1.0" encoding="UTF-8" standalone="no"?>
<svg
   xmlns:dc="http://purl.org/dc/elements/1.1/"
   xmlns:cc="http://creativecommons.org/ns#"
   xmlns:rdf="http://www.w3.org/1999/02/22-rdf-syntax-ns#"
   xmlns:svg="http://www.w3.org/2000/svg"
   xmlns="http://www.w3.org/2000/svg"
   xmlns:sodipodi="http://sodipodi.sourceforge.net/DTD/sodipodi-0.dtd"
   xmlns:inkscape="http://www.inkscape.org/namespaces/inkscape"
   version="1.1"
   id="Layer_1"
   x="0px"
   y="0px"
   viewBox="0 0 30 30"
   style="enable-background:new 0 0 30 30;"
   xml:space="preserve"
   sodipodi:docname="clouds-few-night.svg"
   inkscape:version="1.0.1 (3bc2e813f5, 2020-09-07)"
   inkscape:export-filename="U:\home\andrew\Programs\weatherboard\server\icons-7\clouds-scattered-day.png"
   inkscape:export-xdpi="320"
   inkscape:export-ydpi="320"><metadata
   id="metadata26"><rdf:RDF><cc:Work
       rdf:about=""><dc:format>image/svg+xml</dc:format><dc:type
         rdf:resource="http://purl.org/dc/dcmitype/StillImage" /><dc:title></dc:title></cc:Work></rdf:RDF></metadata><defs
   id="defs24" /><sodipodi:namedview
   pagecolor="#ffffff"
   bordercolor="#666666"
   borderopacity="1"
   objecttolerance="10"
   gridtolerance="10"
   guidetolerance="10"
   inkscape:pageopacity="0"
   inkscape:pageshadow="2"
   inkscape:window-width="1440"
   inkscape:window-height="898"
   id="namedview22"
   showgrid="false"
   inkscape:zoom="19.753789"
   inkscape:cx="11.067204"
   inkscape:cy="15.350878"
   inkscape:current-layer="Layer_1"
   inkscape:document-rotation="0"
   inkscape:window-x="-6"
   inkscape:window-y="33"
   inkscape:window-maximized="1" />

<path
   d="m 12.28443,13.377239 c 0,-0.97738 0.19344,-1.903855 0.570138,-2.799786 0.376699,-0.8959324 0.895932,-1.6595104 1.537337,-2.3009154 0.641406,-0.641406 1.415165,-1.160639 2.311096,-1.547518 0.895932,-0.38688 1.832588,-0.58032 2.799787,-0.58032 h 1.160638 c 0.162897,0.04072 0.234165,0.142535 0.234165,0.285069 l 0.05091,0.895932 c 0.04072,1.292992 0.498871,2.392545 1.394803,3.2986564 0.895931,0.906113 1.975121,1.394804 3.247752,1.445709 l 0.834846,0.07127 c 0.162896,0 0.244344,0.08145 0.244344,0.234164 v 0.997739 c 0.01018,1.303173 -0.305431,2.514717 -0.946836,3.62445 -0.641406,1.109734 -1.506795,1.985303 -2.616528,2.63689 -1.099552,0.641406 -2.311097,0.967199 -3.614269,0.967199 -0.987561,0 -1.934399,-0.19344 -2.83033,-0.570138 C 15.766346,19.658941 15.002768,19.139708 14.361362,18.498303 13.719957,17.856897 13.210905,17.083138 12.834206,16.197387 12.47787,15.301455 12.28443,14.3648 12.28443,13.377239 Z m 1.863131,0 c 0,0.773759 0.152715,1.506794 0.458146,2.199104 0.305431,0.682131 0.712673,1.262449 1.211544,1.730778 0.498871,0.468328 1.069009,0.834845 1.720596,1.099552 0.641405,0.274888 1.303173,0.407242 1.975121,0.407242 0.590501,0 1.191183,-0.111992 1.791864,-0.346156 0.600682,-0.234163 1.160639,-0.559957 1.679872,-0.977379 0.519233,-0.417423 0.957017,-0.946837 1.333716,-1.598424 0.376699,-0.651586 0.610862,-1.354078 0.722854,-2.127838 -1.65951,-0.346155 -2.993226,-1.058828 -3.990968,-2.138018 -0.997742,-1.07919 -1.578061,-2.3416394 -1.730777,-3.8077094 -0.97738,0.06109 -1.852949,0.356336 -2.657251,0.895931 -0.794122,0.539596 -1.415165,1.221725 -1.85295,2.0565704 -0.437785,0.834846 -0.661767,1.700234 -0.661767,2.606347 z"
   id="path3802"
   inkscape:connector-curvature="0"
   style="fill:#0000ff;stroke-width:1.0181" /><rect
   style="opacity:1;fill:#ffffff"
   id="rect853"
   width="4.9610734"
   height="10.479002"
   x="11.542089"
   y="11.592712" /><rect
   style="opacity:1;fill:#ffffff;stroke-width:0.987949"
   id="rect853-3"
   width="9.1121759"
   height="5.5685515"
   x="13.364525"
   y="16.984083" /><path
   d="m 5.0675072,19.631788 c 0,-0.84 0.28,-1.56 0.84,-2.17 0.56,-0.61 1.26,-0.96 2.1,-1.06 l 0.5,-0.03 c 0.12,0 0.19,-0.06 0.19,-0.18 l 0.07,-0.54 c 0.14,-1.08 0.61,-1.99 1.4100008,-2.71 0.8,-0.73 1.74,-1.09 2.81,-1.09 1.1,0 2.06,0.37 2.87,1.1 0.82,0.73 1.27,1.63 1.37,2.71 l 0.07,0.58 c 0.02,0.11 0.09,0.17 0.21,0.17 h 1.61 c 0.88,0 1.64,0.32 2.28,0.96 0.64,0.64 0.96,1.39 0.96,2.27 0,0.91 -0.32,1.68 -0.95,2.32 -0.63,0.64 -1.4,0.96 -2.28,0.96 H 8.2875072 c -0.88,0 -1.63,-0.32 -2.27,-0.97 -0.63,-0.65 -0.95,-1.42 -0.95,-2.32 z m 17.5400008,-3.46 c -0.97,-0.96 -2.13,-1.44 -3.49,-1.44 h -0.32 c -0.25,-1.09 -0.81,-2.07 -1.69,-2.94 l -1.43,-0.96 c -0.77,-0.44 -1.67,-0.66 -2.7,-0.66 -1.41,0 -2.65,0.44 -3.7300008,1.31 -1.08,0.87 -1.78,1.99 -2.08,3.35 -1.12,0.26 -2.03,0.83 -2.74,1.73 -0.71,0.9 -1.07,1.92 -1.07,3.07 0,0.9 0.22,1.73 0.66,2.49 0.44,0.76 1.04,1.36 1.8,1.8 0.76,0.44 1.58,0.66 2.47,0.66 H 19.117508 c 0.89,0 1.72,-0.22 2.48,-0.66 0.76,-0.44 1.37,-1.04 1.81,-1.8 0.44,-0.76 0.67,-1.59 0.67,-2.49 0,-0.66 -0.14,-1.33 -0.42,-2"
   id="path19"
   inkscape:connector-curvature="0"
   sodipodi:nodetypes="sscccscscccssssssscscscccsscsssssssssc" /></svg>
