<?xml version="1.0" encoding="UTF-8" standalone="no"?>
<svg
   xmlns:dc="http://purl.org/dc/elements/1.1/"
   xmlns:cc="http://creativecommons.org/ns#"
   xmlns:rdf="http://www.w3.org/1999/02/22-rdf-syntax-ns#"
   xmlns:svg="http://www.w3.org/2000/svg"
   xmlns="http://www.w3.org/2000/svg"
   xmlns:sodipodi="http://sodipodi.sourceforge.net/DTD/sodipodi-0.dtd"
   xmlns:inkscape="http://www.inkscape.org/namespaces/inkscape"
   version="1.1"
   id="Layer_1"
   x="0px"
   y="0px"
   viewBox="0 0 30 30"
   style="enable-background:new 0 0 30 30;"
   xml:space="preserve"
   sodipodi:docname="clouds-few-day.svg"
   inkscape:version="1.0.1 (3bc2e813f5, 2020-09-07)"
   inkscape:export-filename="U:\home\andrew\Programs\weatherboard\server\icons-7\clouds-scattered-day.png"
   inkscape:export-xdpi="320"
   inkscape:export-ydpi="320"><metadata
   id="metadata26"><rdf:RDF><cc:Work
       rdf:about=""><dc:format>image/svg+xml</dc:format><dc:type
         rdf:resource="http://purl.org/dc/dcmitype/StillImage" /><dc:title /></cc:Work></rdf:RDF></metadata><defs
   id="defs24" /><sodipodi:namedview
   pagecolor="#ffffff"
   bordercolor="#666666"
   borderopacity="1"
   objecttolerance="10"
   gridtolerance="10"
   guidetolerance="10"
   inkscape:pageopacity="0"
   inkscape:pageshadow="2"
   inkscape:window-width="1440"
   inkscape:window-height="898"
   id="namedview22"
   showgrid="false"
   inkscape:zoom="20.133333"
   inkscape:cx="14.399267"
   inkscape:cy="14.666204"
   inkscape:current-layer="Layer_1"
   inkscape:document-rotation="0"
   inkscape:window-x="-6"
   inkscape:window-y="33"
   inkscape:window-maximized="1" />
<path
   d="m 1.56,19.631788 c 0,0.9 0.22,1.73 0.66,2.49 0.44,0.76 1.04,1.36 1.8,1.8 0.76,0.44 1.58,0.66 2.47,0.66 h 10.83 c 0.89,0 1.72,-0.22 2.48,-0.66 0.76,-0.44 1.37,-1.04 1.81,-1.8 0.44,-0.76 0.67,-1.59 0.67,-2.49 0,-0.66 -0.14,-1.33 -0.42,-2 0.76,-0.92 1.14,-2.03 1.14,-3.3 0,-0.71 -0.14,-1.39 -0.41,-2.04 -0.27,-0.65 -0.65,-1.2 -1.12,-1.67 -0.47,-0.47 -1.02,-0.8499999 -1.67,-1.1199999 -0.65,-0.28 -1.33,-0.41 -2.04,-0.41 -1.48,0 -2.77,0.58 -3.88,1.7399999 -0.77,-0.44 -1.67,-0.66 -2.7,-0.66 -1.41,0 -2.65,0.44 -3.73,1.31 -1.08,0.87 -1.78,1.99 -2.08,3.35 -1.12,0.26 -2.03,0.83 -2.74,1.73 -0.71,0.9 -1.07,1.92 -1.07,3.07 z m 1.71,0 c 0,-0.84 0.28,-1.56 0.84,-2.17 0.56,-0.61 1.26,-0.96 2.1,-1.06 l 0.5,-0.03 c 0.12,0 0.19,-0.06 0.19,-0.18 l 0.07,-0.54 c 0.14,-1.08 0.61,-1.99 1.41,-2.71 0.8,-0.73 1.74,-1.09 2.81,-1.09 1.1,0 2.06,0.37 2.87,1.1 0.82,0.73 1.27,1.63 1.37,2.71 l 0.07,0.58 c 0.02,0.11 0.09,0.17 0.21,0.17 h 1.61 c 0.88,0 1.64,0.32 2.28,0.96 0.64,0.64 0.96,1.39 0.96,2.27 0,0.91 -0.32,1.68 -0.95,2.32 -0.63,0.64 -1.4,0.96 -2.28,0.96 H 6.49 c -0.88,0 -1.63,-0.32 -2.27,-0.97 -0.63,-0.65 -0.95,-1.42 -0.95,-2.32 z M 9.97,7.3617881 c 0,0.24 0.08,0.45 0.24,0.63 l 0.66,0.64 c 0.25,0.19 0.46,0.27 0.64,0.25 0.21,0 0.39,-0.09 0.55,-0.26 0.16,-0.17 0.24,-0.38 0.24,-0.62 0,-0.24 -0.09,-0.44 -0.26,-0.59 l -0.59,-0.66 c -0.18,-0.16 -0.38,-0.24 -0.61,-0.24 -0.24,0 -0.45,0.08 -0.62,0.25 -0.17,0.16 -0.25,0.36 -0.25,0.6 z m 5.34,4.4299999 c 0.69,-0.67 1.51,-1 2.45,-1 0.99,0 1.83,0.34 2.52,1.03 0.69,0.69 1.04,1.52 1.04,2.51 0,0.62 -0.17,1.24 -0.51,1.84 -0.97,-0.96 -2.13,-1.44 -3.49,-1.44 H 17 c -0.25,-1.09 -0.81,-2.07 -1.69,-2.94 z m 1.63,-5.2799999 c 0,0.26 0.08,0.46 0.23,0.62 0.15,0.16 0.35,0.23 0.59,0.23 0.26,0 0.46,-0.08 0.62,-0.23 0.16,-0.16 0.23,-0.36 0.23,-0.62 v -2.05 c 0,-0.24 -0.08,-0.43 -0.24,-0.59 -0.16,-0.16 -0.36,-0.23 -0.61,-0.23 -0.24,0 -0.43,0.08 -0.59,0.23 -0.16,0.15 -0.23,0.35 -0.23,0.59 v 2.05 z m 5.52,2.29 c 0,0.26 0.07,0.46 0.22,0.62 0.21,0.16 0.42,0.24 0.62,0.24 0.18,0 0.38,-0.08 0.59,-0.24 l 1.43,-1.43 c 0.16,-0.18 0.24,-0.39 0.24,-0.64 0,-0.24 -0.08,-0.44 -0.24,-0.6 -0.16,-0.16 -0.36,-0.24 -0.59,-0.24 -0.24,0 -0.43,0.08 -0.58,0.24 l -1.47,1.43 c -0.15,0.19 -0.22,0.39 -0.22,0.62 z m 0.79,11.8399999 c 0,0.24 0.08,0.45 0.25,0.63 l 0.65,0.63 c 0.15,0.16 0.34,0.24 0.58,0.24 0.24,0 0.44,-0.08 0.6,-0.25 0.16,-0.17 0.24,-0.37 0.24,-0.62 0,-0.22 -0.08,-0.42 -0.24,-0.58 l -0.65,-0.65 c -0.16,-0.16 -0.35,-0.24 -0.57,-0.24 -0.24,0 -0.44,0.08 -0.6,0.24 -0.17,0.16 -0.26,0.36 -0.26,0.6 z m 1.47,-6.31 c 0,0.23 0.09,0.42 0.26,0.58 0.16,0.16 0.37,0.24 0.61,0.24 h 2.04 c 0.23,0 0.42,-0.08 0.58,-0.23 0.16,-0.15 0.23,-0.35 0.23,-0.59 0,-0.24 -0.08,-0.44 -0.23,-0.6 -0.15,-0.16 -0.35,-0.25 -0.58,-0.25 h -2.04 c -0.24,0 -0.44,0.08 -0.61,0.25 -0.18,0.17 -0.26,0.37 -0.26,0.6 z"
   id="path19"
   inkscape:connector-curvature="0" />
<path
   inkscape:connector-curvature="0"
   d="m 21.86,17.631788 c 0.76,-0.92 1.14,-2.03 1.14,-3.3 0,-0.71 -0.14,-1.39 -0.41,-2.04 -0.27,-0.65 -0.65,-1.2 -1.12,-1.67 -0.47,-0.47 -1.02,-0.8499999 -1.67,-1.1199999 -0.65,-0.28 -1.33,-0.41 -2.04,-0.41 -1.48,0 -2.77,0.58 -3.88,1.7399999 l 1.43,0.96 c 0.69,-0.67 1.51,-1 2.45,-1 0.99,0 1.83,0.34 2.52,1.03 0.69,0.69 1.04,1.52 1.04,2.51 0,0.62 -0.17,1.24 -0.51,1.84 z M 9.97,7.3617881 c 0,0.24 0.08,0.45 0.24,0.63 l 0.66,0.64 c 0.25,0.19 0.46,0.27 0.64,0.25 0.21,0 0.39,-0.09 0.55,-0.26 0.16,-0.17 0.24,-0.38 0.24,-0.62 0,-0.24 -0.09,-0.44 -0.26,-0.59 l -0.59,-0.66 c -0.18,-0.16 -0.38,-0.24 -0.61,-0.24 -0.24,0 -0.45,0.08 -0.62,0.25 -0.17,0.16 -0.25,0.36 -0.25,0.6 z m 6.97,-0.85 c 0,0.26 0.08,0.46 0.23,0.62 0.15,0.16 0.35,0.23 0.59,0.23 0.26,0 0.46,-0.08 0.62,-0.23 0.16,-0.16 0.23,-0.36 0.23,-0.62 v -2.05 c 0,-0.24 -0.08,-0.43 -0.24,-0.59 -0.16,-0.16 -0.36,-0.23 -0.61,-0.23 -0.24,0 -0.43,0.08 -0.59,0.23 -0.16,0.15 -0.23,0.35 -0.23,0.59 z m 5.52,2.29 c 0,0.26 0.07,0.46 0.22,0.62 0.21,0.16 0.42,0.24 0.62,0.24 0.18,0 0.38,-0.08 0.59,-0.24 l 1.43,-1.43 c 0.16,-0.18 0.24,-0.39 0.24,-0.64 0,-0.24 -0.08,-0.44 -0.24,-0.6 -0.16,-0.16 -0.36,-0.24 -0.59,-0.24 -0.24,0 -0.43,0.08 -0.58,0.24 l -1.47,1.43 c -0.15,0.19 -0.22,0.39 -0.22,0.62 z m 0.79,11.8399999 c 0,0.24 0.08,0.45 0.25,0.63 l 0.65,0.63 c 0.15,0.16 0.34,0.24 0.58,0.24 0.24,0 0.44,-0.08 0.6,-0.25 0.16,-0.17 0.24,-0.37 0.24,-0.62 0,-0.22 -0.08,-0.42 -0.24,-0.58 l -0.65,-0.65 c -0.16,-0.16 -0.35,-0.24 -0.57,-0.24 -0.24,0 -0.44,0.08 -0.6,0.24 -0.17,0.16 -0.26,0.36 -0.26,0.6 z m 1.47,-6.31 c 0,0.23 0.09,0.42 0.26,0.58 0.16,0.16 0.37,0.24 0.61,0.24 h 2.04 c 0.23,0 0.42,-0.08 0.58,-0.23 0.16,-0.15 0.23,-0.35 0.23,-0.59 0,-0.24 -0.08,-0.44 -0.23,-0.6 -0.15,-0.16 -0.35,-0.25 -0.58,-0.25 h -2.04 c -0.24,0 -0.44,0.08 -0.61,0.25 -0.18,0.17 -0.26,0.37 -0.26,0.6 z"
   id="path19-1"
   sodipodi:nodetypes="cssscsccsssccscccssccscsssscsssssssscsccsssccssccsssssscsscssssssscs"
   style="fill:#ff8c00;fill-opacity:1" /></svg>
