<?xml version="1.0" encoding="UTF-8" standalone="no"?>
<!-- Generator: Adobe Illustrator 22.0.1, SVG Export Plug-In . SVG Version: 6.00 Build 0)  -->

<svg
   xmlns:dc="http://purl.org/dc/elements/1.1/"
   xmlns:cc="http://creativecommons.org/ns#"
   xmlns:rdf="http://www.w3.org/1999/02/22-rdf-syntax-ns#"
   xmlns:svg="http://www.w3.org/2000/svg"
   xmlns="http://www.w3.org/2000/svg"
   xmlns:sodipodi="http://sodipodi.sourceforge.net/DTD/sodipodi-0.dtd"
   xmlns:inkscape="http://www.inkscape.org/namespaces/inkscape"
   version="1.1"
   id="Layer_1"
   x="0px"
   y="0px"
   viewBox="0 0 30 30"
   style="enable-background:new 0 0 30 30;"
   xml:space="preserve"
   sodipodi:docname="fog.svg"
   inkscape:version="0.92.5 (2060ec1f9f, 2020-04-08)"
   inkscape:export-filename="W:\home\andrew\Programs\weatherboard\server\icons\fog.png"
   inkscape:export-xdpi="320"
   inkscape:export-ydpi="320"><metadata
   id="metadata3768"><rdf:RDF><cc:Work
       rdf:about=""><dc:format>image/svg+xml</dc:format><dc:type
         rdf:resource="http://purl.org/dc/dcmitype/StillImage" /><dc:title></dc:title></cc:Work></rdf:RDF></metadata><defs
   id="defs3766" /><sodipodi:namedview
   pagecolor="#ffffff"
   bordercolor="#666666"
   borderopacity="1"
   objecttolerance="10"
   gridtolerance="10"
   guidetolerance="10"
   inkscape:pageopacity="0"
   inkscape:pageshadow="2"
   inkscape:window-width="640"
   inkscape:window-height="480"
   id="namedview3764"
   showgrid="false"
   inkscape:zoom="7.8666667"
   inkscape:cx="-4.0677966"
   inkscape:cy="15"
   inkscape:current-layer="Layer_1" />
<path
   style="stroke-width:1.04348409;fill:#ff0000"
   d="m 2.0818837,19.227435 c 0,-0.250436 0.083479,-0.469568 0.2608711,-0.636525 0.1773923,-0.166958 0.396524,-0.250437 0.657395,-0.250437 H 22.481999 c 0.260871,0 0.469568,0.08348 0.636525,0.250437 0.166958,0.166957 0.250436,0.375654 0.250436,0.636525 0,0.240001 -0.08348,0.448698 -0.260871,0.605221 -0.177392,0.166957 -0.386089,0.240001 -0.62609,0.240001 H 3.0001498 c -0.260871,0 -0.4800027,-0.08348 -0.657395,-0.240001 -0.1773923,-0.166958 -0.2608711,-0.36522 -0.2608711,-0.605221 z"
   id="path3776" /><path
   style="stroke-width:1.04348409;fill:#ff0000"
   d="m 4.8158122,15.950895 c 0,-0.250436 0.093914,-0.459133 0.2713059,-0.626091 0.1565226,-0.156522 0.3652194,-0.240001 0.6156556,-0.240001 H 25.184623 c 0.240001,0 0.438263,0.08348 0.60522,0.250436 0.166958,0.166958 0.240002,0.36522 0.240002,0.615656 0,0.250436 -0.08348,0.459133 -0.240002,0.62609 -0.166957,0.177393 -0.365219,0.260871 -0.60522,0.260871 H 5.7027737 c -0.2504362,0 -0.459133,-0.08348 -0.6260905,-0.260871 -0.1773923,-0.177392 -0.260871,-0.386089 -0.260871,-0.62609 z"
   id="path3774" /><path
   style="stroke-width:1.04348409"
   d="m 4.9514651,13.456968 c 0,0.09391 0.052174,0.135653 0.1565227,0.135653 h 1.4921823 c 0.062609,0 0.1356529,-0.05218 0.2086968,-0.166958 0.2504362,-0.542612 0.6156556,-0.980875 1.1060932,-1.325225 0.4904375,-0.34435 1.0330493,-0.542612 1.6174004,-0.584351 l 0.5739165,-0.07304 c 0.114783,0 0.177392,-0.06261 0.177392,-0.187827 l 0.07304,-0.521742 c 0.114783,-1.1269632 0.584351,-2.0660989 1.429573,-2.8174075 0.845222,-0.7513086 1.836532,-1.1269628 2.97393,-1.1269628 1.126963,0 2.107838,0.3756542 2.95306,1.116528 0.834788,0.7408737 1.31479,1.6800095 1.429573,2.7965373 l 0.08348,0.594786 c 0,0.114784 0.07304,0.177393 0.208697,0.177393 h 1.65914 c 0.66783,0 1.283485,0.177392 1.836532,0.542612 0.553046,0.365219 0.960005,0.834787 1.231311,1.429573 0.07304,0.114783 0.146088,0.166957 0.219132,0.166957 h 1.492182 c 0.125218,0 0.177392,-0.07304 0.146088,-0.240001 C 25.7168,12.309135 25.101144,11.432608 24.203748,10.754344 23.295916,10.076079 22.262867,9.7421638 21.1046,9.7421638 H 20.770685 C 20.426335,8.3543299 19.695896,7.2169321 18.579368,6.3299706 17.46284,5.4430091 16.200224,5.0047458 14.770651,5.0047458 c -1.460878,0 -2.754798,0.459133 -3.892196,1.377399 C 9.7410573,7.3004109 9.0210533,8.4691131 8.6975732,9.8882519 7.8106117,10.096949 7.0279986,10.514342 6.3601687,11.150868 5.6923389,11.787393 5.222771,12.538702 4.9619,13.425663 v -0.04174 c -0.010435,0 -0.010435,0.0313 -0.010435,0.07304 z"
   id="path3772" /><path
   style="stroke-width:1.04348409;fill:#ff0000"
   d="m 6.6314746,22.420496 c 0,-0.250436 0.093914,-0.448698 0.2713059,-0.615655 0.1565226,-0.156523 0.3652194,-0.240002 0.6260905,-0.240002 h 19.492284 c 0.250436,0 0.459133,0.08348 0.62609,0.240002 0.177393,0.166957 0.260871,0.365219 0.260871,0.605221 0,0.250436 -0.08348,0.459133 -0.260871,0.636525 -0.177392,0.177392 -0.386089,0.260871 -0.62609,0.260871 H 7.528871 c -0.2400014,0 -0.4486982,-0.09391 -0.6260905,-0.271306 C 6.7253882,22.879629 6.6314746,22.660498 6.6314746,22.420496 Z"
   id="path3761" />
</svg>