<?xml version="1.0" encoding="UTF-8" standalone="no"?>
<svg
   xmlns:dc="http://purl.org/dc/elements/1.1/"
   xmlns:cc="http://creativecommons.org/ns#"
   xmlns:rdf="http://www.w3.org/1999/02/22-rdf-syntax-ns#"
   xmlns:svg="http://www.w3.org/2000/svg"
   xmlns="http://www.w3.org/2000/svg"
   xmlns:sodipodi="http://sodipodi.sourceforge.net/DTD/sodipodi-0.dtd"
   xmlns:inkscape="http://www.inkscape.org/namespaces/inkscape"
   version="1.1"
   id="Layer_1"
   x="0px"
   y="0px"
   viewBox="0 0 30 30"
   style="enable-background:new 0 0 30 30;"
   xml:space="preserve"
   sodipodi:docname="rain.svg"
   inkscape:version="1.0.1 (3bc2e813f5, 2020-09-07)"
   inkscape:export-filename="U:\home\andrew\Programs\weatherboard\server\icons-7\rain.png"
   inkscape:export-xdpi="320"
   inkscape:export-ydpi="320"><metadata
   id="metadata3812"><rdf:RDF><cc:Work
       rdf:about=""><dc:format>image/svg+xml</dc:format><dc:type
         rdf:resource="http://purl.org/dc/dcmitype/StillImage" /><dc:title /></cc:Work></rdf:RDF></metadata><defs
   id="defs3810" /><sodipodi:namedview
   pagecolor="#ffffff"
   bordercolor="#666666"
   borderopacity="1"
   objecttolerance="10"
   gridtolerance="10"
   guidetolerance="10"
   inkscape:pageopacity="0"
   inkscape:pageshadow="2"
   inkscape:window-width="1440"
   inkscape:window-height="898"
   id="namedview3808"
   showgrid="false"
   inkscape:zoom="7.8666667"
   inkscape:cx="-4.0677966"
   inkscape:cy="15"
   inkscape:current-layer="Layer_1"
   inkscape:document-rotation="0"
   inkscape:window-x="-6"
   inkscape:window-y="33"
   inkscape:window-maximized="1" />
<path
   style="stroke-width:1.13941228"
   d="m 3.1949918,14.670912 c 0,-1.310324 0.4101884,-2.472525 1.2305653,-3.497996 C 5.2459339,10.147445 6.2827991,9.4979804 7.5361526,9.2017333 7.8893704,7.6521326 8.6983531,6.3759909 9.9403124,5.3733081 11.182272,4.3706253 12.606537,3.880678 14.213108,3.880678 c 1.572389,0 2.962472,0.4899473 4.193038,1.4584477 1.230565,0.9685005 2.028153,2.221854 2.392765,3.7486664 h 0.364612 c 1.014077,0 1.959789,0.2506706 2.825743,0.7406179 0.865953,0.489947 1.560995,1.173595 2.062336,2.028154 0.501341,0.854559 0.763406,1.800271 0.763406,2.814348 0,1.002683 -0.239276,1.925607 -0.71783,2.780166 -0.478553,0.854559 -1.139412,1.538207 -1.971183,2.050942 -0.831771,0.512736 -1.743301,0.786195 -2.734589,0.808983 -0.148124,0 -0.227883,-0.06837 -0.227883,-0.1937 v -1.515419 c 0,-0.136729 0.07976,-0.205094 0.227883,-0.205094 0.9685,-0.04558 1.800271,-0.432976 2.483919,-1.1622 0.683647,-0.729224 1.025471,-1.583783 1.025471,-2.575072 0,-0.991289 -0.376006,-1.845848 -1.116624,-2.575072 -0.740618,-0.729224 -1.617966,-1.093836 -2.632043,-1.093836 h -1.834454 c -0.136729,0 -0.205094,-0.06836 -0.205094,-0.1937 l -0.09115,-0.660859 C 18.896093,8.9054861 18.360569,7.868621 17.437645,7.0482441 16.503327,6.2164732 15.43228,5.8062848 14.19032,5.8062848 c -1.241959,0 -2.335795,0.4101884 -3.247325,1.2419593 -0.922924,0.831771 -1.4356592,1.857242 -1.5496004,3.0878069 l -0.079759,0.603889 c 0,0.136729 -0.079759,0.216488 -0.2278825,0.216488 L 8.4818647,10.99061 C 7.5361526,11.104552 6.738564,11.51474 6.089099,12.209782 5.439634,12.904823 5.1205985,13.7252 5.1205985,14.670912 c 0,0.991289 0.3418237,1.845848 1.0254711,2.575072 0.6836473,0.729224 1.5154183,1.116624 2.4839187,1.1622 0.1253354,0 0.1937001,0.06837 0.1937001,0.205095 v 1.515418 c 0,0.125335 -0.068365,0.1937 -0.1937001,0.1937 C 7.1031759,20.254032 5.81564,19.672932 4.7559866,18.579096 3.6963332,17.48526 3.1949918,16.18633 3.1949918,14.670912 Z"
   id="path3820" /><path
   style="stroke-width:1.13941228;fill:#0000ff"
   d="m 9.2908475,22.29358 c 0,-0.04558 0.011394,-0.125335 0.045576,-0.227882 l 1.8572425,-6.574409 c 0.06837,-0.216488 0.1937,-0.3874 0.364612,-0.501341 0.170912,-0.113942 0.353218,-0.170912 0.52413,-0.170912 0.07976,0 0.170911,0.01139 0.273458,0.03418 0.273459,0.04558 0.478554,0.1937 0.615283,0.421583 0.13673,0.227882 0.170912,0.478553 0.09115,0.763406 l -1.857242,6.528832 c -0.136729,0.489947 -0.455765,0.729224 -0.934318,0.729224 -0.04558,0 -0.07976,-0.01139 -0.125335,-0.02279 -0.06837,-0.02279 -0.102547,-0.03418 -0.113942,-0.03418 C 9.7807947,23.170928 9.5984888,23.045592 9.4731534,22.863286 9.3478181,22.669586 9.2908475,22.48728 9.2908475,22.29358 Z"
   id="path3818" /><path
   style="stroke-width:1.13941228;fill:#0000ff"
   d="m 12.276108,25.495329 2.780166,-9.992646 c 0.04558,-0.216488 0.159517,-0.3874 0.341823,-0.501341 0.182306,-0.113942 0.364612,-0.170912 0.558312,-0.170912 0.102547,0 0.205094,0.01139 0.307642,0.03418 0.25067,0.06837 0.432976,0.216489 0.558312,0.444371 0.125335,0.227882 0.148123,0.467159 0.07976,0.729224 l -2.768771,10.00404 c -0.04558,0.1937 -0.148124,0.353217 -0.33043,0.489947 -0.182306,0.136729 -0.364612,0.205094 -0.5811,0.205094 -0.102547,0 -0.205094,-0.02279 -0.284853,-0.05697 -0.227883,-0.05697 -0.421583,-0.205094 -0.592495,-0.44437 -0.125335,-0.205095 -0.148123,-0.444371 -0.06836,-0.740618 z"
   id="path3816" /><path
   style="stroke-width:1.13941228;fill:#0000ff"
   d="m 16.98188,22.316368 c 0,-0.04558 0.01139,-0.125335 0.04558,-0.262064 l 1.857242,-6.574409 c 0.06837,-0.216488 0.182306,-0.3874 0.341823,-0.501342 0.170912,-0.113941 0.341824,-0.170911 0.52413,-0.170911 0.09115,0 0.1937,0.01139 0.296247,0.03418 0.239277,0.06837 0.410189,0.182306 0.52413,0.353218 0.113941,0.170912 0.170912,0.353218 0.170912,0.535524 0,0.03418 -0.01139,0.09115 -0.02279,0.159517 -0.0114,0.06837 -0.02279,0.113941 -0.02279,0.13673 l -1.857242,6.528832 c -0.04558,0.216488 -0.148123,0.398794 -0.319035,0.52413 -0.170912,0.125335 -0.364612,0.1937 -0.5811,0.1937 l -0.273459,-0.05697 C 17.437645,23.148139 17.266733,23.034198 17.141398,22.851892 17.038851,22.68098 16.98188,22.498674 16.98188,22.316368 Z"
   id="path3805" />
</svg>
