<?xml version="1.0" encoding="UTF-8" standalone="no"?>
<svg
   xmlns:dc="http://purl.org/dc/elements/1.1/"
   xmlns:cc="http://creativecommons.org/ns#"
   xmlns:rdf="http://www.w3.org/1999/02/22-rdf-syntax-ns#"
   xmlns:svg="http://www.w3.org/2000/svg"
   xmlns="http://www.w3.org/2000/svg"
   xmlns:sodipodi="http://sodipodi.sourceforge.net/DTD/sodipodi-0.dtd"
   xmlns:inkscape="http://www.inkscape.org/namespaces/inkscape"
   version="1.1"
   id="Layer_1"
   x="0px"
   y="0px"
   viewBox="0 0 30 90"
   xml:space="preserve"
   sodipodi:docname="rise-set-aqi.svg"
   inkscape:version="1.0.1 (3bc2e813f5, 2020-09-07)"
   inkscape:export-filename="U:\home\andrew\Programs\weatherboard\server\icons-7\rise-set-aqi.png"
   inkscape:export-xdpi="153.60001"
   inkscape:export-ydpi="153.60001"
   width="30"
   height="90"><metadata
   id="metadata4011"><rdf:RDF><cc:Work
       rdf:about=""><dc:format>image/svg+xml</dc:format><dc:type
         rdf:resource="http://purl.org/dc/dcmitype/StillImage" /><dc:title /></cc:Work></rdf:RDF></metadata><defs
   id="defs4009" /><sodipodi:namedview
   pagecolor="#ffffff"
   bordercolor="#666666"
   borderopacity="1"
   objecttolerance="10"
   gridtolerance="10"
   guidetolerance="10"
   inkscape:pageopacity="0"
   inkscape:pageshadow="2"
   inkscape:window-width="1427"
   inkscape:window-height="925"
   id="namedview4007"
   showgrid="false"
   inkscape:zoom="10.7"
   inkscape:cx="-5.4583421"
   inkscape:cy="24.890162"
   inkscape:current-layer="Layer_1"
   inkscape:document-rotation="0"
   inkscape:window-x="0"
   inkscape:window-y="40"
   inkscape:window-maximized="0" />
<path
   d="m 1.6059322,17.280581 c 0,-0.273349 0.1093393,-0.524829 0.328018,-0.754442 0.2405465,-0.207744 0.5029609,-0.317084 0.7653753,-0.317084 h 2.5476064 c 0.2952161,0 0.5357627,0.10934 0.7325735,0.317084 0.1968108,0.207745 0.2952161,0.470159 0.2952161,0.754442 0,0.317084 -0.098405,0.579498 -0.2952161,0.787243 -0.1968108,0.207745 -0.4482913,0.317084 -0.7325735,0.317084 H 2.6993255 c -0.2952162,0 -0.5466967,-0.109339 -0.7653753,-0.328018 -0.2186787,-0.229613 -0.328018,-0.492027 -0.328018,-0.776309 z"
   id="path4025"
   inkscape:connector-curvature="0"
   style="fill:#ff8c00;fill-opacity:1;stroke-width:1.09339" /><path
   d="m 5.2469319,8.5553027 c 0,-0.2952162 0.098405,-0.5466966 0.2842822,-0.7435074 0.2514805,-0.2186787 0.5029609,-0.328018 0.7763092,-0.328018 0.2842823,0 0.5357628,0.1093393 0.7435075,0.317084 l 1.793165,1.804099 c 0.2077447,0.2405461 0.3061501,0.4920267 0.3061501,0.7544407 0,0.30615 -0.098405,0.568565 -0.2952162,0.765376 -0.1968108,0.19681 -0.4373573,0.30615 -0.7216396,0.30615 -0.2624143,0 -0.5248287,-0.10934 -0.7653753,-0.317084 L 5.5312141,9.3534798 C 5.3453373,9.1238672 5.2469319,8.8505189 5.2469319,8.5553027 Z"
   id="path4023"
   inkscape:connector-curvature="0"
   style="fill:#ff8c00;fill-opacity:1;stroke-width:1.09339" /><path
   d="m 7.4337184,23.316112 c 0,-0.30615 0.1093394,-0.557631 0.3170841,-0.743508 0.1968108,-0.185877 0.4373573,-0.284282 0.7435074,-0.284282 h 2.8756241 l 3.400453,-3.192708 c 0.10934,-0.08747 0.229613,-0.08747 0.371754,0 l 3.455123,3.192708 h 3.028699 c 0.295217,0 0.546697,0.0984 0.754442,0.30615 0.207744,0.196811 0.317084,0.448291 0.317084,0.732574 0,0.295216 -0.10934,0.546696 -0.317084,0.754441 -0.207745,0.207745 -0.459225,0.317084 -0.754442,0.317084 h -3.695669 c -0.109339,0 -0.218679,-0.02187 -0.317084,-0.07654 l -2.635078,-2.482003 -2.61321,2.482003 c -0.08747,0.05467 -0.185877,0.07654 -0.30615,0.07654 H 8.4943099 c -0.2952162,0 -0.5466966,-0.109339 -0.7544413,-0.317084 C 7.5321238,23.862808 7.4337184,23.611328 7.4337184,23.316112 Z"
   id="path4021"
   inkscape:connector-curvature="0"
   style="stroke-width:1.09339" /><path
   d="m 8.4396403,17.280581 c 0,1.060591 0.2296126,2.022777 0.6779038,2.886558 0.021868,0.131207 0.1202733,0.196811 0.2733483,0.196811 h 2.0555796 c 0.07654,0 0.131207,-0.0328 0.164009,-0.08747 0.0328,-0.0656 0.02187,-0.131207 -0.02187,-0.207744 -0.699772,-0.841913 -1.049658,-1.771298 -1.049658,-2.788153 0,-1.224601 0.437358,-2.274258 1.312072,-3.138039 0.874715,-0.863781 1.924373,-1.290204 3.159907,-1.290204 1.2246,0 2.263324,0.426423 3.127105,1.290204 0.86378,0.863781 1.301138,1.902504 1.301138,3.138039 0,1.027789 -0.349886,1.957174 -1.038724,2.788153 -0.04374,0.07654 -0.05467,0.142141 -0.0328,0.207744 0.02187,0.0656 0.07654,0.08747 0.164009,0.08747 h 2.077448 c 0.142141,0 0.229612,-0.0656 0.25148,-0.196811 0.481093,-0.841913 0.699772,-1.804099 0.699772,-2.886558 0,-0.885649 -0.174943,-1.738496 -0.524829,-2.536673 -0.349886,-0.809111 -0.820045,-1.497949 -1.399543,-2.088381 -0.579499,-0.579498 -1.279271,-1.049657 -2.088382,-1.399543 -0.809111,-0.349886 -1.651024,-0.513895 -2.536672,-0.513895 -0.885649,0 -1.738495,0.174943 -2.547606,0.513895 -0.809111,0.349886 -1.508883,0.809111 -2.099316,1.399543 -0.5904319,0.579499 -1.060591,1.27927 -1.4104769,2.088381 -0.3389519,0.798177 -0.5138948,1.64009 -0.5138948,2.536673 z"
   id="path4019"
   inkscape:connector-curvature="0"
   style="fill:#ff8c00;fill-opacity:1;stroke-width:1.09339" /><path
   d="M 13.939409,7.4837773 V 4.9689727 c 0,-0.317084 0.0984,-0.5685645 0.30615,-0.7763092 0.207744,-0.2077447 0.470159,-0.3061501 0.776309,-0.3061501 0.30615,0 0.55763,0.098405 0.765375,0.3061501 0.207745,0.2077447 0.30615,0.481093 0.30615,0.7872432 v 2.5148045 c 0,0.3170841 -0.0984,0.5685645 -0.30615,0.7763093 -0.196811,0.1968107 -0.459225,0.3061501 -0.765375,0.3061501 -0.317084,0 -0.568565,-0.098405 -0.776309,-0.3061501 -0.207745,-0.2077448 -0.30615,-0.4701592 -0.30615,-0.7872432 z"
   id="path4017"
   inkscape:connector-curvature="0"
   style="fill:#ff8c00;fill-opacity:1;stroke-width:1.09339" /><path
   d="m 20.882456,10.370335 c 0,-0.273348 0.0984,-0.5248286 0.295216,-0.7544412 l 1.771297,-1.8040985 c 0.207745,-0.2077448 0.470159,-0.3170841 0.765376,-0.3170841 0.295216,0 0.55763,0.1093393 0.754441,0.3170841 0.207745,0.2077447 0.30615,0.4592252 0.30615,0.7544413 0,0.3170841 -0.0984,0.5794985 -0.284282,0.7981771 l -1.836901,1.7603633 c -0.229613,0.207744 -0.492027,0.317084 -0.765375,0.317084 -0.295216,0 -0.535763,-0.09841 -0.72164,-0.306151 -0.185877,-0.207744 -0.284282,-0.459225 -0.284282,-0.765375 z"
   id="path4015"
   inkscape:connector-curvature="0"
   style="fill:#ff8c00;fill-opacity:1;stroke-width:1.09339" /><path
   d="m 23.736212,17.280581 c 0,-0.295216 0.09841,-0.546697 0.295217,-0.754442 0.19681,-0.207744 0.437357,-0.317084 0.721639,-0.317084 h 2.569474 c 0.295217,0 0.546697,0.10934 0.754442,0.317084 0.207744,0.207745 0.317084,0.470159 0.317084,0.754442 0,0.30615 -0.10934,0.55763 -0.317084,0.776309 -0.207745,0.218679 -0.459225,0.328018 -0.754442,0.328018 h -2.569474 c -0.295216,0 -0.535763,-0.109339 -0.732573,-0.317084 -0.185877,-0.218679 -0.284283,-0.481093 -0.284283,-0.787243 z"
   id="path4004"
   inkscape:connector-curvature="0"
   style="fill:#ff8c00;fill-opacity:1;stroke-width:1.09339" />
<g
   id="g864"
   transform="translate(-4.5e-5,30.735128)"><path
     style="fill:#ff8c00;stroke-width:1.08309;fill-opacity:1"
     d="m 1.8724879,16.858452 c 0,-0.303266 0.1083094,-0.541547 0.3249282,-0.736504 0.1841259,-0.194957 0.4332375,-0.281604 0.7365037,-0.281604 h 2.5019467 c 0.2924353,0 0.5307159,0.09748 0.7256728,0.292435 0.1841259,0.194957 0.2816044,0.433238 0.2816044,0.725673 0,0.303266 -0.097479,0.563209 -0.2924353,0.768997 -0.1949569,0.205787 -0.4332376,0.314097 -0.7148419,0.314097 H 2.9447508 c -0.2924354,0 -0.5415469,-0.10831 -0.7473347,-0.324928 C 1.9807973,17.399999 1.8724879,17.150887 1.8724879,16.858452 Z"
     id="path4057" /><path
     style="fill:#ff8c00;stroke-width:1.08309;fill-opacity:1"
     d="m 5.4358665,8.3453354 c 0,-0.3032663 0.086647,-0.5523778 0.2707734,-0.7365038 0.2166188,-0.2166187 0.4657303,-0.3249281 0.7581657,-0.3249281 0.3140971,0 0.5523778,0.1083094 0.7365037,0.3249281 l 1.7546119,1.7654429 c 0.4982232,0.4765612 0.4982232,0.9639535 0,1.4621765 -0.2057878,0.205788 -0.4332375,0.303266 -0.7040109,0.303266 -0.2382806,0 -0.4765613,-0.09748 -0.7365038,-0.303266 L 5.7174708,9.0818392 C 5.5333449,8.8868823 5.4358665,8.6377707 5.4358665,8.3453354 Z"
     id="path4055" /><path
     style="stroke-width:1.08309"
     d="m 7.5695612,22.72882 c 0,-0.281604 0.1083094,-0.530716 0.3249281,-0.747334 0.1949569,-0.194957 0.4440685,-0.292436 0.7365038,-0.292436 h 3.4875619 c 0.11914,0 0.216619,0.02166 0.303266,0.08665 l 2.545271,2.404468 2.588594,-2.415299 c 0.07582,-0.05415 0.184126,-0.08665 0.314097,-0.08665 h 3.57421 c 0.292435,0 0.541546,0.09748 0.747334,0.303267 0.205788,0.205787 0.314097,0.454899 0.314097,0.736503 0,0.292436 -0.108309,0.541547 -0.314097,0.747335 -0.205788,0.205788 -0.454899,0.314097 -0.747334,0.314097 h -2.902692 l -3.400914,3.075987 c -0.129972,0.09748 -0.249112,0.09748 -0.357421,0 L 11.447037,23.779421 H 8.6309931 c -0.2924353,0 -0.5415469,-0.108309 -0.7473347,-0.314097 C 7.6778706,23.270367 7.5695612,23.021256 7.5695612,22.72882 Z"
     id="path4053" /><path
     style="fill:#ff8c00;stroke-width:1.08309;fill-opacity:1"
     d="m 8.5876694,16.858452 c 0,1.072263 0.2057878,2.025385 0.6281943,2.837706 0.064986,0.11914 0.1624641,0.173295 0.2924354,0.173295 h 2.0253849 c 0.08665,0 0.140803,-0.02166 0.162465,-0.07582 0.02166,-0.05415 -0.01083,-0.11914 -0.07582,-0.194957 -0.639025,-0.801489 -0.963954,-1.722119 -0.963954,-2.740227 0,-1.191403 0.422407,-2.209511 1.278051,-3.043493 0.855644,-0.833983 1.884583,-1.256389 3.086817,-1.256389 1.191404,0 2.209512,0.422406 3.065156,1.256389 0.844813,0.844813 1.27805,1.85209 1.27805,3.032662 0,1.018108 -0.324928,1.938738 -0.963953,2.740227 -0.07582,0.07582 -0.09748,0.140803 -0.07582,0.194957 0.02166,0.05416 0.07582,0.07582 0.162465,0.07582 h 2.036216 c 0.140802,0 0.227449,-0.05416 0.259942,-0.173295 0.444069,-0.844813 0.671518,-1.797936 0.671518,-2.837706 0,-0.855644 -0.173295,-1.689626 -0.509054,-2.480285 -0.335753,-0.790658 -0.801483,-1.483838 -1.375523,-2.057878 -0.574039,-0.574039 -1.256389,-1.028939 -2.047047,-1.375528 -0.790658,-0.34659 -1.624641,-0.509055 -2.491116,-0.509055 -0.866475,0 -1.700457,0.173296 -2.491115,0.509055 -0.790659,0.346589 -1.473008,0.801489 -2.047048,1.375528 -0.5740393,0.57404 -1.0289387,1.256389 -1.3755287,2.057878 -0.34659,0.80149 -0.5307159,1.635472 -0.5307159,2.491116 z"
     id="path4051" /><path
     style="fill:#ff8c00;stroke-width:1.08309;fill-opacity:1"
     d="M 13.959815,7.3163963 V 4.7927878 c 0,-0.2924353 0.108309,-0.5415469 0.314097,-0.7473347 0.205788,-0.2057878 0.454899,-0.3140972 0.747334,-0.3140972 0.292436,0 0.541547,0.1083094 0.747335,0.3140972 0.205788,0.2057878 0.314097,0.4548994 0.314097,0.7473347 v 2.5127776 c 0,0.2924353 -0.108309,0.5415469 -0.314097,0.7473347 -0.205788,0.2057878 -0.454899,0.3140972 -0.747335,0.3140972 -0.292435,0 -0.541546,-0.1083094 -0.747334,-0.3140972 C 14.057293,7.8471123 13.959815,7.6088316 13.959815,7.3163963 Z"
     id="path4049" /><path
     style="fill:#ff8c00;stroke-width:1.08309;fill-opacity:1"
     d="m 20.750812,10.110778 c 0,-0.303266 0.09748,-0.5523776 0.281605,-0.7256726 L 22.79786,7.6196626 c 0.173295,-0.2166188 0.422406,-0.3249282 0.736504,-0.3249282 0.292435,0 0.541546,0.1083094 0.736503,0.3140972 0.194957,0.2057878 0.292436,0.4548994 0.292436,0.7473347 0,0.3032663 -0.08665,0.5523779 -0.270774,0.7365038 l -1.797936,1.7654429 c -0.249111,0.205788 -0.498223,0.303266 -0.747334,0.303266 -0.281605,0 -0.519885,-0.09748 -0.714842,-0.303266 -0.184126,-0.205788 -0.281605,-0.454899 -0.281605,-0.747335 z"
     id="path4047" /><path
     style="fill:#ff8c00;stroke-width:1.08309;fill-opacity:1"
     d="m 23.556025,16.858452 c 0,-0.292435 0.09748,-0.530716 0.281605,-0.725673 0.184126,-0.194957 0.433237,-0.292435 0.725673,-0.292435 h 2.512777 c 0.292435,0 0.541547,0.09748 0.747335,0.292435 0.205788,0.194957 0.314097,0.433238 0.314097,0.725673 0,0.292435 -0.108309,0.541547 -0.314097,0.758166 -0.205788,0.216618 -0.4549,0.324928 -0.747335,0.324928 h -2.512777 c -0.281605,0 -0.519885,-0.10831 -0.714842,-0.314097 -0.194957,-0.205788 -0.292436,-0.465731 -0.292436,-0.768997 z"
     id="path4036" /></g><path
   style="stroke-width:0.0119229;fill:#0000ff"
   d="m 20.47432,74.550729 q 0,-0.441144 0.280188,-0.721329 0.280187,-0.280186 0.721333,-0.280186 h 5.746824 q 0.441146,0 0.721333,0.286143 0.280188,0.286158 0.280188,0.715372 0,0.417313 -0.286149,0.691527 -0.286149,0.274228 -0.715372,0.274228 h -5.746824 q -0.441146,0 -0.721333,-0.274228 -0.280188,-0.274214 -0.280188,-0.691527 z"
   id="path988" /><path
   style="stroke-width:0.0119229;fill:#0000ff"
   d="m 7.0134004,78.163364 q 0,-0.405383 0.3099941,-0.691526 Q 7.5976206,77.19761 8.0149212,77.19761 H 23.407347 q 0.429223,0 0.715372,0.274228 0.286148,0.274227 0.286148,0.691526 0,0.4173 -0.29211,0.715372 -0.29211,0.298073 -0.70941,0.298073 H 8.0149212 q -0.4173006,0 -0.7094114,-0.298073 -0.2921094,-0.298072 -0.2921094,-0.715372 z"
   id="path986" /><path
   style="stroke-width:0.0119229;fill:#000000"
   d="m 4.9626668,70.866573 q 0,-0.4173 0.2980715,-0.703457 0.2861488,-0.286143 0.715372,-0.286143 H 21.356613 q 0.405377,0 0.685565,0.286143 0.280187,0.286157 0.280187,0.703457 0,0.417299 -0.280187,0.709414 -0.280188,0.292101 -0.685565,0.292101 H 5.9761103 q -0.4173006,0 -0.715372,-0.292101 -0.2980715,-0.292115 -0.2980715,-0.709414 z"
   id="path984" /><path
   style="stroke-width:0.0119229;fill:#000000"
   d="m 1.8865658,74.550729 q 0,-0.429214 0.2980714,-0.715372 0.2980715,-0.286143 0.7272961,-0.286143 H 18.280512 q 0.417301,0 0.691527,0.280186 0.274226,0.280185 0.274226,0.721329 0,0.417313 -0.274226,0.691527 -0.274226,0.274228 -0.691527,0.274228 H 2.9119333 q -0.4292246,0 -0.7272961,-0.274228 -0.2980714,-0.274214 -0.2980714,-0.691527 z"
   id="path944" /></svg>
