<?xml version="1.0" encoding="UTF-8" standalone="no"?>
<svg
   xmlns:dc="http://purl.org/dc/elements/1.1/"
   xmlns:cc="http://creativecommons.org/ns#"
   xmlns:rdf="http://www.w3.org/1999/02/22-rdf-syntax-ns#"
   xmlns:svg="http://www.w3.org/2000/svg"
   xmlns="http://www.w3.org/2000/svg"
   xmlns:sodipodi="http://sodipodi.sourceforge.net/DTD/sodipodi-0.dtd"
   xmlns:inkscape="http://www.inkscape.org/namespaces/inkscape"
   version="1.1"
   id="Layer_1"
   x="0px"
   y="0px"
   viewBox="0 0 30 30"
   style="enable-background:new 0 0 30 30;"
   xml:space="preserve"
   sodipodi:docname="showers.svg"
   inkscape:version="1.0.1 (3bc2e813f5, 2020-09-07)"
   inkscape:export-filename="U:\home\andrew\Programs\weatherboard\server\icons-7\showers.png"
   inkscape:export-xdpi="320"
   inkscape:export-ydpi="320"><metadata
   id="metadata3838"><rdf:RDF><cc:Work
       rdf:about=""><dc:format>image/svg+xml</dc:format><dc:type
         rdf:resource="http://purl.org/dc/dcmitype/StillImage" /><dc:title /></cc:Work></rdf:RDF></metadata><defs
   id="defs3836" /><sodipodi:namedview
   pagecolor="#ffffff"
   bordercolor="#666666"
   borderopacity="1"
   objecttolerance="10"
   gridtolerance="10"
   guidetolerance="10"
   inkscape:pageopacity="0"
   inkscape:pageshadow="2"
   inkscape:window-width="1440"
   inkscape:window-height="898"
   id="namedview3834"
   showgrid="false"
   inkscape:zoom="7.8666667"
   inkscape:cx="-4.0677966"
   inkscape:cy="15"
   inkscape:current-layer="Layer_1"
   inkscape:document-rotation="0"
   inkscape:window-x="-6"
   inkscape:window-y="33"
   inkscape:window-maximized="1" />
<path
   style="stroke-width:1.15043628"
   d="m 3.0354628,14.550098 c 0,-1.334506 0.4141571,-2.507951 1.2539755,-3.543344 C 5.1177525,9.9713615 6.1876582,9.3041085 7.4876512,9.0164999 7.8212777,7.4288978 8.6150787,6.1404092 9.8690542,5.1165209 11.12303,4.0926326 12.561075,3.5864407 14.194695,3.5864407 c 1.599106,0 3.025647,0.4946876 4.279623,1.4725584 1.242471,0.9778708 2.05928,2.2433507 2.438924,3.7964397 h 0.391149 c 1.035392,0 1.990254,0.253096 2.853082,0.7592875 0.874331,0.5061917 1.553089,1.1964537 2.059281,2.0707857 0.494687,0.874331 0.747783,1.829193 0.747783,2.864586 0,1.541584 -0.5292,2.853082 -1.576097,3.957501 -1.058402,1.104418 -2.34689,1.679637 -3.876971,1.725654 -0.138052,0 -0.207078,-0.06903 -0.207078,-0.195574 v -1.541585 c 0,-0.126548 0.06903,-0.195574 0.207078,-0.195574 0.966367,-0.08053 1.806185,-0.483183 2.496447,-1.207958 0.690262,-0.724775 1.035393,-1.576098 1.035393,-2.553969 0,-1.023888 -0.36814,-1.909724 -1.104419,-2.657507 -0.736279,-0.73628 -1.610611,-1.115923 -2.634499,-1.115923 H 19.42918 c -0.138053,0 -0.218583,-0.06903 -0.253096,-0.207079 L 19.095553,9.9023353 C 19.015023,9.085526 18.750422,8.3377425 18.290248,7.6704894 17.830073,7.0032364 17.243351,6.4855401 16.53008,6.1058961 15.81681,5.7262521 15.034513,5.5421823 14.206199,5.5421823 c -1.26548,0 -2.358394,0.4141571 -3.290248,1.2539756 C 9.9840979,7.6359763 9.4548972,8.6828733 9.3398536,9.925344 L 9.259323,10.54658 c 0,0.103539 -0.057522,0.161061 -0.1840698,0.161061 l -0.6212356,0.126548 c -0.9663664,0.08053 -1.7831762,0.471679 -2.4274205,1.184949 -0.6557487,0.713271 -0.9778708,1.553089 -0.9778708,2.53096 0,1.000879 0.3451309,1.863707 1.0238883,2.588481 0.6787574,0.724775 1.5070715,1.115924 2.4964467,1.173445 0.1380523,0 0.2070785,0.06903 0.2070785,0.195575 v 1.541584 c 0,0.126548 -0.069026,0.195574 -0.2070785,0.195574 C 7.8097733,20.210244 7.0965028,20.037679 6.4062411,19.727061 5.7159793,19.416443 5.1292568,19.002286 4.6460736,18.496094 4.151386,17.989902 3.7602377,17.40318 3.4726286,16.712918 3.1850195,16.022656 3.0354628,15.309386 3.0354628,14.550098 Z"
   id="path3853" /><path
   style="stroke-width:1.15043628;fill:#0000ff"
   d="m 9.2708274,22.338551 c 0,-0.03451 0.011504,-0.09203 0.023009,-0.149556 0.011504,-0.05752 0.023009,-0.10354 0.023009,-0.126548 l 0.3106178,-1.18495 c 0.080531,-0.253096 0.2300873,-0.460174 0.4601748,-0.586722 0.230087,-0.138053 0.471679,-0.161061 0.736279,-0.08053 0.264601,0.08053 0.460175,0.230088 0.598227,0.460175 0.138053,0.230087 0.161061,0.471679 0.08053,0.736279 l -0.276105,1.161941 c -0.149557,0.506192 -0.437166,0.759288 -0.874332,0.759288 -0.03451,0 -0.05752,0 -0.103539,0 -0.03451,0 -0.08053,-0.0115 -0.126548,-0.0115 -0.04602,-0.0115 -0.08053,-0.0115 -0.115043,-0.0115 C 9.765515,23.235892 9.5814452,23.097839 9.4548972,22.91377 9.3283492,22.7297 9.2708274,22.522621 9.2708274,22.338551 Z"
   id="path3851" /><path
   style="stroke-width:1.15043628;fill:#0000ff"
   d="m 10.789403,16.793449 c 0,-0.02301 0,-0.06903 0.0115,-0.126548 0.0115,-0.05752 0.0115,-0.09203 0.0115,-0.10354 l 0.345131,-1.207958 c 0.06903,-0.218583 0.195574,-0.391148 0.368139,-0.517696 0.172566,-0.115044 0.356636,-0.172566 0.540706,-0.172566 0.02301,0 0.05752,0 0.09203,0 0.03451,0 0.06903,0.0115 0.10354,0.0115 0.03451,0.0115 0.06903,0.0115 0.09203,0.0115 0.2646,0.08053 0.460174,0.230087 0.586722,0.460175 0.138052,0.230087 0.161061,0.471679 0.08053,0.736279 l -0.276105,1.150436 c -0.08053,0.322122 -0.230087,0.540705 -0.460175,0.678758 -0.230087,0.138052 -0.483183,0.138052 -0.747783,0.02301 -0.253096,-0.06903 -0.437166,-0.195574 -0.563714,-0.391148 -0.126548,-0.195574 -0.18407,-0.36814 -0.18407,-0.552209 z"
   id="path3849" /><path
   style="stroke-width:1.15043628;fill:#0000ff"
   d="m 12.20444,25.939417 c 0,-0.03451 0.0115,-0.08053 0.02301,-0.149557 0.0115,-0.06903 0.02301,-0.103539 0.02301,-0.138052 l 0.333627,-1.138932 c 0.06903,-0.276105 0.230087,-0.483183 0.460174,-0.621236 0.230088,-0.138052 0.483184,-0.172565 0.747784,-0.09203 0.2646,0.08053 0.44867,0.230088 0.586722,0.471679 0.138053,0.241592 0.149557,0.483184 0.08053,0.747784 l -0.287609,1.196454 c -0.126548,0.471678 -0.425662,0.701766 -0.920349,0.701766 -0.05752,0 -0.149557,-0.0115 -0.276105,-0.04602 -0.253096,-0.04602 -0.437166,-0.161061 -0.563714,-0.345131 -0.138054,-0.184072 -0.20708,-0.379647 -0.20708,-0.586725 z"
   id="path3847" /><path
   style="stroke-width:1.15043628;fill:#0000ff"
   d="m 13.746024,20.451836 c 0,-0.06903 0.0115,-0.161061 0.04602,-0.287609 l 0.310618,-1.18495 c 0.08053,-0.2646 0.230087,-0.460174 0.471679,-0.586722 0.230087,-0.138052 0.483183,-0.161061 0.747783,-0.08053 0.2646,0.06903 0.44867,0.218583 0.586723,0.448671 0.126548,0.230087 0.149556,0.471678 0.06903,0.747783 l -0.276105,1.138932 c -0.149557,0.517696 -0.425661,0.782297 -0.828314,0.782297 -0.04602,0 -0.172565,-0.02301 -0.356635,-0.06903 -0.253096,-0.04602 -0.437166,-0.161062 -0.563714,-0.345131 -0.138052,-0.172566 -0.207079,-0.36814 -0.207079,-0.563714 z"
   id="path3845" /><path
   style="stroke-width:1.15043628;fill:#0000ff"
   d="m 16.990255,22.384569 c 0,-0.08053 0.0115,-0.172566 0.03451,-0.276105 l 0.322122,-1.138932 c 0.08053,-0.276104 0.230087,-0.483183 0.471679,-0.621235 0.241591,-0.138053 0.471679,-0.172566 0.724775,-0.10354 0.2646,0.08053 0.471679,0.230088 0.609731,0.471679 0.138052,0.230087 0.172565,0.471679 0.103539,0.724775 l -0.333626,1.219463 c -0.115044,0.471678 -0.414157,0.701766 -0.908845,0.701766 -0.103539,0 -0.207079,-0.0115 -0.299113,-0.03451 -0.230088,-0.04602 -0.402653,-0.161062 -0.529201,-0.345131 -0.115044,-0.207079 -0.18407,-0.402653 -0.195574,-0.598227 z"
   id="path3843" /><path
   style="stroke-width:1.15043628;fill:#0000ff"
   d="m 18.577857,16.908492 c 0,-0.03451 0.02301,-0.138052 0.05752,-0.299113 l 0.34513,-1.18495 c 0.04602,-0.241591 0.149557,-0.425661 0.333627,-0.540705 0.18407,-0.115043 0.36814,-0.172565 0.563714,-0.161061 0.04602,-0.0115 0.149556,0 0.276104,0.03451 0.253096,0.05752 0.448671,0.207079 0.598227,0.437166 0.138053,0.195574 0.161061,0.437166 0.08053,0.747784 l -0.276105,1.184949 c -0.149557,0.494688 -0.437166,0.747784 -0.874331,0.747784 -0.06903,0 -0.195575,-0.02301 -0.391149,-0.06903 -0.241591,-0.06903 -0.414157,-0.195574 -0.5292,-0.356635 -0.126548,-0.18407 -0.18407,-0.356635 -0.18407,-0.540705 z"
   id="path3831" />
</svg>
