<?xml version="1.0" encoding="UTF-8" standalone="no"?>
<svg
   xmlns:dc="http://purl.org/dc/elements/1.1/"
   xmlns:cc="http://creativecommons.org/ns#"
   xmlns:rdf="http://www.w3.org/1999/02/22-rdf-syntax-ns#"
   xmlns:svg="http://www.w3.org/2000/svg"
   xmlns="http://www.w3.org/2000/svg"
   xmlns:sodipodi="http://sodipodi.sourceforge.net/DTD/sodipodi-0.dtd"
   xmlns:inkscape="http://www.inkscape.org/namespaces/inkscape"
   version="1.1"
   id="Layer_1"
   x="0px"
   y="0px"
   viewBox="0 0 30 30"
   style="enable-background:new 0 0 30 30;"
   xml:space="preserve"
   sodipodi:docname="sleet.svg"
   inkscape:version="1.0.1 (3bc2e813f5, 2020-09-07)"
   inkscape:export-filename="U:\home\andrew\Programs\weatherboard\server\icons-7\sleet.png"
   inkscape:export-xdpi="320"
   inkscape:export-ydpi="320"><metadata
   id="metadata3871"><rdf:RDF><cc:Work
       rdf:about=""><dc:format>image/svg+xml</dc:format><dc:type
         rdf:resource="http://purl.org/dc/dcmitype/StillImage" /><dc:title /></cc:Work></rdf:RDF></metadata><defs
   id="defs3869" /><sodipodi:namedview
   pagecolor="#ffffff"
   bordercolor="#666666"
   borderopacity="1"
   objecttolerance="10"
   gridtolerance="10"
   guidetolerance="10"
   inkscape:pageopacity="0"
   inkscape:pageshadow="2"
   inkscape:window-width="1440"
   inkscape:window-height="898"
   id="namedview3867"
   showgrid="false"
   inkscape:zoom="22.250293"
   inkscape:cx="11.408284"
   inkscape:cy="14.512494"
   inkscape:current-layer="Layer_1"
   inkscape:document-rotation="0"
   inkscape:window-x="-6"
   inkscape:window-y="33"
   inkscape:window-maximized="1" />
<path
   d="m 2.5418565,13.93672 c 0,-1.389172 0.4311222,-2.622661 1.2933668,-3.700467 C 4.6974677,9.158448 5.7992245,8.4518869 7.1165424,8.1524965 7.4877866,6.5118373 8.3260799,5.1705681 9.6314222,4.1167137 10.936765,3.0628594 12.445692,2.5359322 14.14623,2.5359322 c 0.970026,0 1.856222,0.155683 2.634636,0.4790247 0,0.011975 0,0.011975 0.01197,0.023951 1.005952,0.3832198 1.892147,1.0059519 2.646611,1.8562207 h 0.03593 c 0.814341,0.8742201 1.353244,1.9160989 1.64066,3.1376119 h 0.371243 c 1.293367,0 2.419075,0.3472925 3.3891,1.0299033 v -0.011975 c 0.634708,0.4311214 1.173611,0.9580492 1.604732,1.5927572 0.431123,0.634708 0.718538,1.329294 0.874221,2.083758 0.0479,0.251488 0.07185,0.455073 0.0958,0.622732 v 0.07185 c 0,0.01197 0,0.07185 0.01197,0.203586 0.01198,0.131731 0.01198,0.227536 0.01198,0.287414 v 0.03593 c 0,1.053855 -0.251488,2.035855 -0.76644,2.934026 -0.502976,0.898172 -1.197561,1.628685 -2.083757,2.167588 -0.87422,0.538902 -1.844245,0.826317 -2.8981,0.862244 -0.155682,0 -0.239512,-0.07185 -0.239512,-0.203586 v -1.604732 c 0,-0.155684 0.08383,-0.227537 0.239512,-0.227537 1.029903,-0.0479 1.892148,-0.455073 2.610685,-1.221513 0.718537,-0.766439 1.077806,-1.664611 1.077806,-2.70649 0,-1.06583 -0.38322,-1.975976 -1.161635,-2.742416 -0.76644,-0.766439 -1.688563,-1.14966 -2.766368,-1.14966 H 19.5592 c -0.143707,0 -0.215561,-0.071852 -0.215561,-0.2035855 l -0.0958,-0.7065612 c -0.119753,-1.1975584 -0.622729,-2.2274615 -1.5209,-3.1016816 -0.01198,-0.011975 -0.01198,-0.023951 -0.02395,-0.035927 -0.01198,-0.011975 -0.02395,-0.023951 -0.02395,-0.035926 -0.01197,-0.011975 -0.02395,-0.023951 -0.0479,-0.023951 0,-0.023951 -0.01197,-0.035927 -0.02395,-0.035927 -0.87422,-0.7903908 -1.892148,-1.2454643 -3.065758,-1.3412692 -0.08383,-0.011975 -0.215561,-0.011975 -0.407171,-0.011975 -1.317318,0 -2.455002,0.4430978 -3.425027,1.3173179 C 9.7392028,6.7513501 9.1883244,7.8411313 9.0685682,9.1344972 L 8.9727627,9.8410585 C 8.9368354,9.9488392 8.8410309,10.008717 8.7092991,10.008717 l -0.5868053,0.03593 C 7.1165424,10.1644 6.2662736,10.595522 5.595639,11.326035 4.9250045,12.056548 4.5896872,12.930768 4.5896872,13.93672 v 0.0479 h 0.035927 c 0.011975,0.574829 0.1317317,1.113731 0.3592684,1.616707 0.2395124,0.514952 0.5508784,0.946074 0.9580495,1.305343 0.251488,0.215561 0.5389028,0.407171 0.8861957,0.57483 v 0.01197 c 0.4790247,0.227537 0.9580493,0.359269 1.4490497,0.38322 0.1317318,0 0.2035855,0.07185 0.2035855,0.21556 v 1.604734 c 0,0.131731 -0.071854,0.203585 -0.2035855,0.203585 C 7.6554457,19.86464 7.0686404,19.744888 6.5057864,19.541302 v 0.01198 C 5.5118097,19.205991 4.6615408,18.631162 3.9789306,17.840772 3.2963204,17.05038 2.8412469,16.116282 2.6496371,15.074404 v -0.03593 c -0.011976,-0.01197 -0.011976,-0.02395 -0.011976,-0.0479 -0.071854,-0.311365 -0.095805,-0.670634 -0.095805,-1.053853 z"
   id="path3887"
   inkscape:connector-curvature="0"
   style="stroke-width:1.19756174" /><path
   d="m 9.1284462,22.523238 c 0,-0.03593 0.011975,-0.08383 0.023951,-0.155684 0.011975,-0.05988 0.023951,-0.10778 0.023951,-0.143707 l 0.1077806,-0.706561 c 0.083829,-0.287415 0.2395123,-0.491001 0.4910003,-0.634708 0.2514879,-0.143708 0.5149519,-0.167659 0.8143419,-0.0958 0.275439,0.08383 0.46705,0.251488 0.610757,0.491001 0.131732,0.251488 0.155682,0.502976 0.08383,0.754464 l -0.167659,0.718536 c -0.119755,0.526927 -0.419146,0.790391 -0.910147,0.790391 -0.03593,0 -0.0958,-0.01198 -0.167658,-0.02395 -0.071852,-0.01197 -0.1197566,-0.02395 -0.1676583,-0.02395 -0.2514918,-0.07186 -0.431126,-0.203589 -0.5508822,-0.395198 -0.1317318,-0.179635 -0.19161,-0.371245 -0.19161,-0.57483 z"
   id="path3885"
   inkscape:connector-curvature="0"
   style="stroke-width:1.19756174;fill:#0000ff" /><path
   d="m 10.014642,19.002406 c 0,-0.287415 0.0958,-0.514951 0.275439,-0.706561 0.179635,-0.19161 0.419147,-0.27544 0.706563,-0.27544 0.287414,0 0.514951,0.0958 0.706561,0.27544 0.19161,0.179634 0.275439,0.419146 0.275439,0.706561 0,0.275439 -0.0958,0.502976 -0.275439,0.694586 -0.179635,0.19161 -0.419147,0.275439 -0.706561,0.275439 -0.27544,0 -0.502976,-0.0958 -0.682611,-0.287415 -0.19161,-0.191609 -0.299391,-0.419147 -0.299391,-0.68261 z"
   id="path3883"
   inkscape:connector-curvature="0"
   style="stroke-width:1.19756174;fill:#808080" /><path
   d="m 11.978644,26.175801 c 0,-0.0479 0.01198,-0.131732 0.0479,-0.275439 l 0.155683,-0.706561 c 0.08383,-0.27544 0.251488,-0.479026 0.491,-0.610757 0.251488,-0.143707 0.502976,-0.167659 0.754464,-0.08383 0.275439,0.0479 0.491001,0.203585 0.634708,0.443097 0.143707,0.239513 0.179635,0.514952 0.0958,0.814343 l -0.155684,0.706561 c -0.119756,0.491 -0.443098,0.730512 -0.958049,0.730512 -0.08383,0 -0.19161,-0.01197 -0.287416,-0.03593 -0.263463,-0.07185 -0.455073,-0.203586 -0.586805,-0.395196 -0.119756,-0.191609 -0.191609,-0.38322 -0.191609,-0.586806 z"
   id="path3881"
   inkscape:connector-curvature="0"
   style="stroke-width:1.19756174;fill:#0000ff" /><path
   d="m 12.924718,22.690896 c 0,-0.275439 0.0958,-0.514951 0.275438,-0.694586 0.19161,-0.19161 0.419147,-0.275439 0.706563,-0.275439 0.287414,0 0.514951,0.0958 0.706561,0.275439 0.19161,0.19161 0.275439,0.419147 0.275439,0.694586 0,0.287415 -0.0958,0.514951 -0.275439,0.706561 -0.19161,0.19161 -0.419147,0.27544 -0.706561,0.27544 -0.27544,0 -0.502976,-0.0958 -0.694586,-0.287415 -0.19161,-0.19161 -0.287415,-0.419146 -0.287415,-0.694586 z"
   id="path3879"
   inkscape:connector-curvature="0"
   style="stroke-width:1.19756174;fill:#808080" /><path
   d="m 13.667206,19.972431 c 0,-0.119757 0.01197,-0.227536 0.03593,-0.323342 l 0.275439,-1.077805 c 0.08383,-0.275439 0.251488,-0.491001 0.491,-0.634708 0.251488,-0.143707 0.502976,-0.179634 0.76644,-0.0958 0.287415,0.08383 0.491,0.239511 0.634708,0.479024 0.143707,0.239512 0.167658,0.491 0.08383,0.754464 l -0.311366,1.077805 c -0.0958,0.335317 -0.263463,0.550879 -0.491001,0.670635 -0.227536,0.119757 -0.490999,0.143707 -0.766439,0.07185 -0.239513,-0.0479 -0.419146,-0.167659 -0.538902,-0.359269 -0.143708,-0.19161 -0.19161,-0.38322 -0.179635,-0.562854 z"
   id="path3877"
   inkscape:connector-curvature="0"
   style="stroke-width:1.19756174;fill:#0000ff" /><path
   d="m 16.972476,22.535213 c 0,-0.03593 0,-0.0958 0.01197,-0.155683 0.01197,-0.05988 0.01197,-0.10778 0.01197,-0.131732 l 0.107781,-0.706561 c 0.08383,-0.287415 0.239512,-0.491001 0.491,-0.634708 0.251488,-0.143707 0.514952,-0.167659 0.814342,-0.0958 0.275439,0.08383 0.479025,0.251488 0.610756,0.491 0.143708,0.251488 0.167659,0.502976 0.08383,0.754464 l -0.167659,0.718538 c -0.119756,0.526927 -0.419147,0.79039 -0.910146,0.79039 -0.03593,0 -0.0958,-0.01197 -0.167659,-0.02395 -0.07185,-0.01198 -0.131732,-0.02395 -0.167659,-0.02395 -0.239512,-0.07185 -0.419146,-0.203586 -0.538902,-0.395195 -0.107781,-0.19161 -0.179635,-0.38322 -0.179635,-0.586805 z"
   id="path3875"
   inkscape:connector-curvature="0"
   style="stroke-width:1.19756174;fill:#0000ff" /><path
   d="m 17.858672,19.014381 c 0,-0.287414 0.0958,-0.514951 0.275439,-0.706561 0.19161,-0.19161 0.419147,-0.275439 0.706562,-0.275439 0.287414,0 0.514952,0.0958 0.706561,0.275439 0.19161,0.19161 0.275439,0.419147 0.275439,0.706561 0,0.275439 -0.0958,0.514952 -0.275439,0.694586 -0.179634,0.179635 -0.407171,0.275439 -0.694585,0.275439 -0.287416,0 -0.514952,-0.0958 -0.694586,-0.287414 -0.19161,-0.179635 -0.299391,-0.407172 -0.299391,-0.682611 z"
   id="path3864"
   inkscape:connector-curvature="0"
   style="stroke-width:1.19756174;fill:#808080" />
</svg>
