<?xml version="1.0" encoding="UTF-8" standalone="no"?>
<!-- Generator: Adobe Illustrator 22.0.1, SVG Export Plug-In . SVG Version: 6.00 Build 0)  -->

<svg
   xmlns:dc="http://purl.org/dc/elements/1.1/"
   xmlns:cc="http://creativecommons.org/ns#"
   xmlns:rdf="http://www.w3.org/1999/02/22-rdf-syntax-ns#"
   xmlns:svg="http://www.w3.org/2000/svg"
   xmlns="http://www.w3.org/2000/svg"
   xmlns:sodipodi="http://sodipodi.sourceforge.net/DTD/sodipodi-0.dtd"
   xmlns:inkscape="http://www.inkscape.org/namespaces/inkscape"
   version="1.1"
   id="Layer_1"
   x="0px"
   y="0px"
   viewBox="0 0 30 30"
   style="enable-background:new 0 0 30 30;"
   xml:space="preserve"
   sodipodi:docname="snow.svg"
   inkscape:version="0.92.5 (2060ec1f9f, 2020-04-08)"
   inkscape:export-filename="W:\home\andrew\Programs\weatherboard\server\icons\snow.png"
   inkscape:export-xdpi="320"
   inkscape:export-ydpi="320"><metadata
   id="metadata3905"><rdf:RDF><cc:Work
       rdf:about=""><dc:format>image/svg+xml</dc:format><dc:type
         rdf:resource="http://purl.org/dc/dcmitype/StillImage" /><dc:title></dc:title></cc:Work></rdf:RDF></metadata><defs
   id="defs3903" /><sodipodi:namedview
   pagecolor="#ffffff"
   bordercolor="#666666"
   borderopacity="1"
   objecttolerance="10"
   gridtolerance="10"
   guidetolerance="10"
   inkscape:pageopacity="0"
   inkscape:pageshadow="2"
   inkscape:window-width="640"
   inkscape:window-height="480"
   id="namedview3901"
   showgrid="false"
   inkscape:zoom="7.8666667"
   inkscape:cx="-4.0677966"
   inkscape:cy="15"
   inkscape:current-layer="Layer_1" />
<path
   style="stroke-width:1.17796612"
   d="m 2.797161,14.193305 c 0,-1.366441 0.4122881,-2.567967 1.248644,-3.628136 C 4.882161,9.5049995 5.9541101,8.8217797 7.2734322,8.4919492 7.6386017,6.8899153 8.4631779,5.5705933 9.747161,4.5339831 c 1.283983,-1.0366102 2.756441,-1.5431356 4.417373,-1.5431356 1.625593,0 3.062712,0.5065254 4.334915,1.5077966 1.272204,1.0012712 2.09678,2.2970339 2.473729,3.8755085 h 0.376949 c 1.04839,0 2.026102,0.2591525 2.921356,0.777457 0.895254,0.5183051 1.613814,1.2250844 2.132119,2.1203394 0.518305,0.895254 0.789237,1.872966 0.789237,2.921356 0,1.554915 -0.541864,2.909576 -1.637373,4.028644 -1.083729,1.130847 -2.41483,1.71983 -3.981525,1.766949 -0.153136,0 -0.235594,-0.07068 -0.235594,-0.200254 v -1.566695 c 0,-0.141356 0.08246,-0.212034 0.235594,-0.212034 1.001271,-0.04712 1.861186,-0.447627 2.567966,-1.201526 0.706779,-0.753898 1.060169,-1.625593 1.060169,-2.626864 0,-1.04839 -0.376949,-1.943644 -1.142627,-2.709322 -0.765678,-0.765678 -1.672712,-1.142627 -2.732881,-1.142627 h -1.896526 c -0.141356,0 -0.212034,-0.07068 -0.212034,-0.200255 L 19.123771,9.4461012 C 18.994195,8.1738984 18.440551,7.1019492 17.486398,6.2420339 16.520466,5.3821187 15.413178,4.9462712 14.129195,4.9462712 c -1.295763,0 -2.414831,0.4358475 -3.368983,1.3075424 C 9.8060593,7.1255085 9.2641949,8.1974577 9.1463983,9.4932198 l -0.070678,0.5889832 c 0,0.141356 -0.082458,0.223813 -0.2355932,0.223813 l -0.624322,0.08246 c -0.9777119,0.08246 -1.8022882,0.482966 -2.4737289,1.225085 -0.6714406,0.742118 -1.0012712,1.590254 -1.0012712,2.579746 0,1.001271 0.3533899,1.872966 1.0601695,2.626864 0.7067797,0.753898 1.566695,1.142627 2.5679662,1.201525 0.1295762,0 0.2002542,0.07068 0.2002542,0.212034 v 1.566695 c 0,0.129577 -0.070678,0.200254 -0.2002542,0.200254 C 6.7904661,19.953559 5.4593644,19.364576 4.3638559,18.233728 3.3390254,17.102881 2.797161,15.74822 2.797161,14.193305 Z"
   id="path3921" /><path
   style="stroke-width:1.17796612;fill:#ff0000"
   d="m 10.289025,18.987627 c 0,-0.259153 0.09424,-0.494746 0.282712,-0.683221 0.188475,-0.188474 0.412288,-0.282712 0.695,-0.282712 0.270932,0 0.506526,0.09424 0.695,0.282712 0.188475,0.188475 0.282712,0.424068 0.282712,0.683221 0,0.282711 -0.09424,0.518305 -0.282712,0.706779 -0.188474,0.200255 -0.412288,0.294492 -0.695,0.294492 -0.270932,0 -0.506525,-0.09424 -0.695,-0.294492 -0.188474,-0.188474 -0.282712,-0.424068 -0.282712,-0.706779 z"
   id="path3919" /><path
   style="stroke-width:1.17796612;fill:#ff0000"
   d="m 10.289025,23.263644 c 0,-0.282712 0.09424,-0.518306 0.282712,-0.70678 0.188475,-0.176695 0.412288,-0.270932 0.683221,-0.270932 0.270932,0 0.506525,0.09424 0.695,0.270932 0.188474,0.188474 0.282711,0.412288 0.282711,0.695 0,0.282712 -0.09424,0.506525 -0.282711,0.695 -0.188475,0.188474 -0.412289,0.270932 -0.695,0.270932 -0.270933,0 -0.506526,-0.09424 -0.695,-0.270932 -0.176695,-0.176695 -0.270933,-0.412288 -0.270933,-0.68322 z"
   id="path3917" /><path
   style="stroke-width:1.17796612;fill:#ff0000"
   d="m 14.046737,21.261101 c 0,-0.270932 0.09424,-0.518305 0.294492,-0.730339 0.188474,-0.188474 0.412288,-0.282712 0.67144,-0.282712 0.270933,0 0.506526,0.106017 0.70678,0.306272 0.200254,0.200254 0.306271,0.435847 0.306271,0.706779 0,0.270932 -0.09424,0.506526 -0.294491,0.70678 -0.200254,0.200254 -0.435848,0.294491 -0.71856,0.294491 -0.270932,0 -0.494745,-0.09424 -0.68322,-0.294491 -0.188474,-0.200254 -0.282712,-0.435848 -0.282712,-0.70678 z"
   id="path3915" /><path
   style="stroke-width:1.17796612;fill:#ff0000"
   d="m 14.046737,16.996864 c 0,-0.270932 0.09424,-0.506526 0.294492,-0.70678 0.212034,-0.188474 0.435847,-0.282712 0.67144,-0.282712 0.282712,0 0.518306,0.09424 0.71856,0.294492 0.200254,0.200254 0.294491,0.424068 0.294491,0.70678 0,0.270932 -0.09424,0.506525 -0.294491,0.695 -0.200254,0.188474 -0.435848,0.282711 -0.71856,0.282711 -0.270932,0 -0.494745,-0.09424 -0.68322,-0.282711 -0.188474,-0.200255 -0.282712,-0.435848 -0.282712,-0.70678 z"
   id="path3913" /><path
   style="stroke-width:1.17796612;fill:#ff0000"
   d="m 14.046737,25.572457 c 0,-0.270932 0.09424,-0.506525 0.294492,-0.718559 0.188474,-0.188475 0.412288,-0.282712 0.67144,-0.282712 0.282712,0 0.518306,0.09424 0.71856,0.294491 0.200254,0.200255 0.294491,0.435848 0.294491,0.70678 0,0.270932 -0.09424,0.506526 -0.294491,0.695 -0.200254,0.188475 -0.435848,0.282712 -0.71856,0.282712 -0.270932,0 -0.494745,-0.09424 -0.68322,-0.282712 -0.188474,-0.200254 -0.282712,-0.424068 -0.282712,-0.695 z"
   id="path3911" /><path
   style="stroke-width:1.17796612;fill:#ff0000"
   d="m 17.839788,18.987627 c 0,-0.259153 0.09424,-0.482966 0.294492,-0.683221 0.200254,-0.200254 0.435847,-0.294491 0.706779,-0.294491 0.270933,0 0.506526,0.09424 0.695,0.282712 0.188475,0.188474 0.282712,0.424067 0.282712,0.68322 0,0.282712 -0.09424,0.518305 -0.282712,0.70678 -0.188474,0.200254 -0.412288,0.294491 -0.695,0.294491 -0.282712,0 -0.518305,-0.09424 -0.706779,-0.294491 -0.188475,-0.188475 -0.294492,-0.424068 -0.294492,-0.695 z"
   id="path3909" /><path
   style="stroke-width:1.17796612;fill:#ff0000"
   d="m 17.839788,23.263644 c 0,-0.259153 0.09424,-0.494746 0.294492,-0.70678 0.188474,-0.176695 0.424067,-0.270932 0.706779,-0.270932 0.282712,0 0.506526,0.09424 0.695,0.270932 0.188475,0.176695 0.270933,0.412288 0.270933,0.695 0,0.282712 -0.09424,0.506525 -0.270933,0.695 -0.188474,0.188474 -0.412288,0.270932 -0.695,0.270932 -0.282712,0 -0.518305,-0.09424 -0.706779,-0.282712 -0.188475,-0.176695 -0.294492,-0.400508 -0.294492,-0.67144 z"
   id="path3898" />
</svg>