<?xml version="1.0" encoding="UTF-8" standalone="no"?>
<svg
   xmlns:dc="http://purl.org/dc/elements/1.1/"
   xmlns:cc="http://creativecommons.org/ns#"
   xmlns:rdf="http://www.w3.org/1999/02/22-rdf-syntax-ns#"
   xmlns:svg="http://www.w3.org/2000/svg"
   xmlns="http://www.w3.org/2000/svg"
   xmlns:sodipodi="http://sodipodi.sourceforge.net/DTD/sodipodi-0.dtd"
   xmlns:inkscape="http://www.inkscape.org/namespaces/inkscape"
   version="1.1"
   id="Layer_1"
   x="0px"
   y="0px"
   viewBox="0 0 30 30"
   style="enable-background:new 0 0 30 30;"
   xml:space="preserve"
   sodipodi:docname="thunderstorm.svg"
   inkscape:version="1.0.1 (3bc2e813f5, 2020-09-07)"
   inkscape:export-filename="U:\home\andrew\Programs\weatherboard\server\icons-7\thunderstorm.png"
   inkscape:export-xdpi="320"
   inkscape:export-ydpi="320"><metadata
   id="metadata3729"><rdf:RDF><cc:Work
       rdf:about=""><dc:format>image/svg+xml</dc:format><dc:type
         rdf:resource="http://purl.org/dc/dcmitype/StillImage" /><dc:title /></cc:Work></rdf:RDF></metadata><defs
   id="defs3727" /><sodipodi:namedview
   pagecolor="#ffffff"
   bordercolor="#666666"
   borderopacity="1"
   objecttolerance="10"
   gridtolerance="10"
   guidetolerance="10"
   inkscape:pageopacity="0"
   inkscape:pageshadow="2"
   inkscape:window-width="1440"
   inkscape:window-height="898"
   id="namedview3725"
   showgrid="false"
   inkscape:zoom="20.133333"
   inkscape:cx="8.7344149"
   inkscape:cy="16.333057"
   inkscape:current-layer="Layer_1"
   inkscape:document-rotation="0"
   inkscape:window-x="-6"
   inkscape:window-y="33"
   inkscape:window-maximized="1" />
<path
   style="stroke-width:1.21848476;fill:#0000ff"
   d="m 17.349491,22.171311 c 0,0.158403 0.03655,0.316806 0.121848,0.463024 0.170588,0.268067 0.377731,0.450839 0.621428,0.536133 0.134033,0.03655 0.255881,0.06092 0.365545,0.06092 0.109664,0 0.243697,-0.02437 0.389915,-0.09748 0.255882,-0.109664 0.42647,-0.341176 0.511764,-0.694536 l 1.754618,-6.908809 c 0.03655,-0.170588 0.06092,-0.280252 0.06092,-0.328991 0,-0.182773 -0.06092,-0.365546 -0.194958,-0.548318 -0.134033,-0.182773 -0.316806,-0.316806 -0.560503,-0.389915 -0.207142,-0.02437 -0.316806,-0.03655 -0.316806,-0.03655 -0.207142,0 -0.4021,0.06092 -0.572687,0.182773 -0.170588,0.121848 -0.292437,0.304621 -0.365546,0.548318 l -1.778988,6.945363 c 0,0.02437 0,0.06092 -0.01218,0.134034 -0.02437,0.06092 -0.02437,0.09748 -0.02437,0.134033 z"
   id="path835" /><path
   style="stroke-width:1.21848476;fill:#0000ff"
   d="m 12.280594,25.899874 c 0,0.475209 0.231512,0.792015 0.706721,0.938234 0.01218,0 0.06092,0 0.134034,0.01218 0.07311,0.01218 0.134033,0.01218 0.170587,0.01218 0.207143,0 0.4021,-0.06092 0.597058,-0.182772 0.194958,-0.121849 0.328991,-0.316806 0.389915,-0.584873 L 17.0205,15.506199 c 0.07311,-0.292436 0.04874,-0.548318 -0.08529,-0.792015 -0.134033,-0.231512 -0.328991,-0.389915 -0.609242,-0.475209 -0.207143,-0.02437 -0.316806,-0.03655 -0.316806,-0.03655 -0.194958,0 -0.389916,0.06093 -0.572688,0.182773 -0.182773,0.121849 -0.316806,0.304621 -0.377731,0.548318 l -2.753775,10.625188 c -0.01219,0.121848 -0.02437,0.231512 -0.02437,0.341175 z"
   id="path833" /><path
   style="stroke-width:1.21848476"
   d="m 2.3621279,14.068387 c 0,1.352518 0.4021,2.558818 1.2063,3.6189 0.8041999,1.060082 1.8520968,1.791173 3.1436907,2.181088 l -0.8042,2.047054 c -0.036555,0.170588 0.02437,0.268067 0.1705879,0.268067 H 8.6738791 L 7.479764,27.42298 H 7.8209398 L 12.5974,20.416693 c 0.04874,-0.04874 0.04874,-0.109664 0.01218,-0.170588 -0.03655,-0.06092 -0.09748,-0.08529 -0.182773,-0.08529 H 9.7705154 l 3.0218426,-5.653769 c 0.08529,-0.170588 0.02437,-0.268067 -0.170588,-0.268067 H 9.0394245 c -0.1096636,0 -0.2071424,0.06092 -0.2802515,0.182773 L 7.4553943,17.918799 C 6.5902701,17.699472 5.8713641,17.224263 5.2986762,16.505357 4.7259884,15.786451 4.4457369,14.970066 4.4457369,14.056202 c 0,-1.011342 0.3411757,-1.888651 1.0357121,-2.644112 0.6945363,-0.743275 1.5474756,-1.18193 2.558818,-1.303778 l 0.645797,-0.08529 c 0.158403,0 0.2436969,-0.07311 0.2436969,-0.2193285 L 9.0150548,9.1822626 C 9.1490882,7.8662994 9.6974063,6.7574782 10.684379,5.8679843 c 0.986973,-0.8894939 2.144533,-1.3403332 3.472682,-1.3403332 1.328148,0 2.485709,0.4508393 3.472681,1.3403332 0.999158,0.8894939 1.559661,1.9983151 1.705879,3.3142783 l 0.08529,0.7067209 c 0,0.1340345 0.07311,0.2071435 0.219327,0.2071435 h 1.949576 c 1.108821,0 2.047054,0.389915 2.826885,1.15756 0.77983,0.767646 1.18193,1.705879 1.18193,2.778146 0,1.035712 -0.365546,1.93739 -1.084452,2.692851 -0.718906,0.75546 -1.620584,1.18193 -2.680666,1.267224 -0.158403,0 -0.243697,0.07311 -0.243697,0.219327 v 1.669325 c 0,0.134033 0.08529,0.207142 0.243697,0.207142 1.620585,-0.04874 2.997472,-0.670167 4.130663,-1.839912 1.133191,-1.169746 1.693694,-2.571003 1.693694,-4.203773 0,-1.096636 -0.268067,-2.107978 -0.816385,-3.034027 C 26.305354,10.083942 25.562078,9.3528504 24.63603,8.8167171 23.697797,8.2805842 22.686454,8.0125175 21.589818,8.0125175 h -0.37773 C 20.809988,6.3919328 19.944863,5.0637844 18.641085,4.0402571 17.337306,3.0167299 15.83857,2.4927815 14.157061,2.4927815 c -1.718064,0 -3.253355,0.5361333 -4.5815031,1.596215 C 8.2474094,5.1490783 7.3944701,6.5137813 7.0167398,8.1831054 5.6642217,8.4999115 4.5554005,9.1944474 3.6780915,10.291084 2.8007824,11.387721 2.3621279,12.66713 2.3621279,14.068387 Z"
   id="path3722" />
<path
   inkscape:connector-curvature="0"
   d="m 6.7121186,19.868375 -0.8042,2.047054 c -0.036555,0.170588 0.02437,0.268067 0.1705879,0.268067 H 8.6738791 L 7.479764,27.42298 H 7.8209398 L 12.5974,20.416693 c 0.04874,-0.04874 0.04874,-0.109664 0.01218,-0.170588 -0.03655,-0.06092 -0.09748,-0.08529 -0.182773,-0.08529 H 9.7705154 l 3.0218426,-5.653769 c 0.08529,-0.170588 0.02437,-0.268067 -0.170588,-0.268067 H 9.0394245 c -0.1096636,0 -0.2071424,0.06092 -0.2802515,0.182773 l -1.3037787,3.497051 z"
   id="path3722-5"
   style="fill:#ffff00;stroke-width:1.21848476"
   sodipodi:nodetypes="ccsccccssccssccc" /></svg>
