<svg xmlns="http://www.w3.org/2000/svg" xmlns:xlink="http://www.w3.org/1999/xlink" width="2209" height="1462" preserveAspectRatio="xMidYMid meet" viewBox="0 0 2209 1462" style="-ms-transform: rotate(360deg); -webkit-transform: rotate(360deg); transform: rotate(360deg);"><path d="M0 784q0-36 25-60t61-24h1289q35 0 58 23.5t23 60.5q0 35-23 58t-58 23H86q-36 0-61-23T0 784zm258-309q0-35 25-59q24-24 60-24h1290q34 0 57.5 24t23.5 59t-23.5 59.5T1633 559H343q-35 0-60-24.5T258 475zm172 612q0-34 26-58q23-23 58-23h1291q36 0 60 23t24 58t-24.5 60t-59.5 25H514q-35 0-59.5-25t-24.5-60zm1129-303q0-37 23.5-60.5T1643 700h482q37 0 60.5 24t23.5 60q0 35-24 58t-60 23h-482q-37 0-60.5-23t-23.5-58z" fill="#626262"/><rect x="0" y="0" width="2209" height="1462" fill="rgba(0, 0, 0, 0)" /></svg>