<?xml version="1.0" encoding="UTF-8" standalone="no"?>
<!-- Generator: Adobe Illustrator 22.0.1, SVG Export Plug-In . SVG Version: 6.00 Build 0)  -->

<svg
   xmlns:dc="http://purl.org/dc/elements/1.1/"
   xmlns:cc="http://creativecommons.org/ns#"
   xmlns:rdf="http://www.w3.org/1999/02/22-rdf-syntax-ns#"
   xmlns:svg="http://www.w3.org/2000/svg"
   xmlns="http://www.w3.org/2000/svg"
   xmlns:sodipodi="http://sodipodi.sourceforge.net/DTD/sodipodi-0.dtd"
   xmlns:inkscape="http://www.inkscape.org/namespaces/inkscape"
   version="1.1"
   id="Layer_1"
   x="0px"
   y="0px"
   viewBox="0 0 30 30"
   style="enable-background:new 0 0 30 30;"
   xml:space="preserve"
   sodipodi:docname="clouds-broken.svg"
   inkscape:version="0.92.5 (2060ec1f9f, 2020-04-08)"
   inkscape:export-filename="W:\home\andrew\Programs\weatherboard\server\icons\clouds-broken.png"
   inkscape:export-xdpi="320"
   inkscape:export-ydpi="320"><metadata
   id="metadata3794"><rdf:RDF><cc:Work
       rdf:about=""><dc:format>image/svg+xml</dc:format><dc:type
         rdf:resource="http://purl.org/dc/dcmitype/StillImage" /><dc:title></dc:title></cc:Work></rdf:RDF></metadata><defs
   id="defs3792" /><sodipodi:namedview
   pagecolor="#ffffff"
   bordercolor="#666666"
   borderopacity="1"
   objecttolerance="10"
   gridtolerance="10"
   guidetolerance="10"
   inkscape:pageopacity="0"
   inkscape:pageshadow="2"
   inkscape:window-width="640"
   inkscape:window-height="480"
   id="namedview3790"
   showgrid="false"
   inkscape:zoom="7.8666667"
   inkscape:cx="-4.0677966"
   inkscape:cy="15"
   inkscape:current-layer="Layer_1" />
<path
   d="m 2.3645763,18.015535 c 0,-1.12599 0.3525827,-2.138244 1.0577482,-3.014014 0.7051655,-0.87577 1.6036828,-1.444452 2.7069256,-1.694672 0.2957145,-1.330715 0.9667591,-2.433958 2.0245073,-3.275607 1.0577483,-0.8530231 2.2747276,-1.2738477 3.6623106,-1.2738477 1.34209,0 2.547695,0.4094509 3.59407,1.2397264 1.057748,0.8302753 1.740166,1.8880233 2.047254,3.1846183 h 0.307089 c 1.342089,0 2.479452,0.466319 3.423464,1.410331 0.944012,0.944012 1.421705,2.081376 1.421705,3.412091 0,1.342089 -0.477693,2.479453 -1.421705,3.423465 -0.944012,0.944012 -2.081375,1.421704 -3.423464,1.421704 H 7.2211192 c -0.6596709,0 -1.285221,-0.12511 -1.8766501,-0.386703 C 4.75304,22.201033 4.2184791,21.882571 3.7862809,21.450373 3.3540827,21.018175 3.0128736,20.494988 2.7512799,19.903558 2.4896863,19.312129 2.3645763,18.663832 2.3645763,18.015535 Z m 1.6491773,0 c 0,0.864396 0.3184618,1.615056 0.9326382,2.229233 0.6141764,0.614176 1.3762101,0.932638 2.2633538,0.932638 H 17.764481 c 0.87577,0 1.637803,-0.307088 2.263353,-0.932638 0.62555,-0.625551 0.944012,-1.364837 0.944012,-2.229233 0,-0.864397 -0.307088,-1.615057 -0.944012,-2.229233 -0.62555,-0.614177 -1.37621,-0.932638 -2.263353,-0.932638 h -1.580936 c -0.113736,0 -0.170605,-0.05687 -0.170605,-0.170605 l -0.07962,-0.557308 c -0.113736,-1.069122 -0.568682,-1.967639 -1.353463,-2.672805 -0.784781,-0.705165 -1.717419,-1.057748 -2.786541,-1.057748 -1.069122,0 -2.0017599,0.352583 -2.7979144,1.069122 -0.7961546,0.705165 -1.2397265,1.603683 -1.3420892,2.661431 l -0.079615,0.477693 c 0,0.113736 -0.056868,0.170604 -0.1819782,0.170604 l -0.5118137,0.07962 C 6.0610082,14.921905 5.37859,15.263115 4.8212818,15.865917 4.2980945,16.46872 4.0137536,17.185259 4.0137536,18.015535 Z M 14.079422,8.0977234 c -0.113736,0.1023627 -0.09099,0.1819781 0.07962,0.2388463 0.489066,0.2160991 0.898517,0.4208246 1.228352,0.6255501 0.12511,0.034121 0.2161,0.022747 0.25022,-0.034121 0.693792,-0.6482973 1.489947,-0.9781327 2.411211,-0.9781327 0.921265,0 1.706046,0.3070882 2.388464,0.9212646 0.671045,0.6141763 1.046375,1.3762103 1.12599,2.2747273 l 0.102363,0.727913 h 1.615056 c 0.739287,0 1.376211,0.261593 1.910771,0.796154 0.534561,0.534561 0.796155,1.160111 0.796155,1.888024 0,0.682418 -0.238846,1.273847 -0.705165,1.785661 -0.46632,0.511814 -1.046375,0.796155 -1.740167,0.87577 -0.113736,0 -0.170604,0.05687 -0.170604,0.181978 v 1.285221 c 0,0.12511 0.05687,0.181978 0.170604,0.181978 1.148737,-0.06824 2.115497,-0.523187 2.900277,-1.353462 0.784781,-0.830276 1.182859,-1.819782 1.182859,-2.957146 0,-1.205605 -0.420825,-2.229233 -1.273848,-3.070882 C 25.498558,10.634044 24.47493,10.21322 23.280698,10.21322 H 23.11009 C 22.814375,9.0758561 22.188825,8.1432179 21.23344,7.4039315 20.289428,6.6646451 19.220306,6.3006887 18.048821,6.3006887 16.456512,6.2893151 15.125797,6.8921178 14.079422,8.0977234 Z"
   id="path3787"
   inkscape:connector-curvature="0"
   style="stroke-width:1.13736367" />
</svg>