<?xml version="1.0" encoding="UTF-8" standalone="no"?>
<!-- Generator: Adobe Illustrator 22.0.1, SVG Export Plug-In . SVG Version: 6.00 Build 0)  -->

<svg
   xmlns:dc="http://purl.org/dc/elements/1.1/"
   xmlns:cc="http://creativecommons.org/ns#"
   xmlns:rdf="http://www.w3.org/1999/02/22-rdf-syntax-ns#"
   xmlns:svg="http://www.w3.org/2000/svg"
   xmlns="http://www.w3.org/2000/svg"
   xmlns:sodipodi="http://sodipodi.sourceforge.net/DTD/sodipodi-0.dtd"
   xmlns:inkscape="http://www.inkscape.org/namespaces/inkscape"
   version="1.1"
   id="Layer_1"
   x="0px"
   y="0px"
   viewBox="0 0 30 30"
   style="enable-background:new 0 0 30 30;"
   xml:space="preserve"
   sodipodi:docname="sunrise.svg"
   inkscape:version="0.92.5 (2060ec1f9f, 2020-04-08)"
   inkscape:export-filename="W:\home\andrew\Programs\weatherboard\server\icons\sunrise.png"
   inkscape:export-xdpi="160"
   inkscape:export-ydpi="160"><metadata
   id="metadata4011"><rdf:RDF><cc:Work
       rdf:about=""><dc:format>image/svg+xml</dc:format><dc:type
         rdf:resource="http://purl.org/dc/dcmitype/StillImage" /><dc:title></dc:title></cc:Work></rdf:RDF></metadata><defs
   id="defs4009" /><sodipodi:namedview
   pagecolor="#ffffff"
   bordercolor="#666666"
   borderopacity="1"
   objecttolerance="10"
   gridtolerance="10"
   guidetolerance="10"
   inkscape:pageopacity="0"
   inkscape:pageshadow="2"
   inkscape:window-width="640"
   inkscape:window-height="480"
   id="namedview4007"
   showgrid="false"
   inkscape:zoom="7.8666667"
   inkscape:cx="-4.0677966"
   inkscape:cy="15"
   inkscape:current-layer="Layer_1" />
<path
   d="m 1.6059322,17.280581 c 0,-0.273349 0.1093393,-0.524829 0.328018,-0.754442 0.2405465,-0.207744 0.5029609,-0.317084 0.7653753,-0.317084 h 2.5476064 c 0.2952161,0 0.5357627,0.10934 0.7325735,0.317084 0.1968108,0.207745 0.2952161,0.470159 0.2952161,0.754442 0,0.317084 -0.098405,0.579498 -0.2952161,0.787243 -0.1968108,0.207745 -0.4482913,0.317084 -0.7325735,0.317084 H 2.6993255 c -0.2952162,0 -0.5466967,-0.109339 -0.7653753,-0.328018 -0.2186787,-0.229613 -0.328018,-0.492027 -0.328018,-0.776309 z"
   id="path4025"
   inkscape:connector-curvature="0"
   style="stroke-width:1.09339333;fill:#ff0000" /><path
   d="m 5.2469319,8.5553027 c 0,-0.2952162 0.098405,-0.5466966 0.2842822,-0.7435074 0.2514805,-0.2186787 0.5029609,-0.328018 0.7763092,-0.328018 0.2842823,0 0.5357628,0.1093393 0.7435075,0.317084 l 1.793165,1.804099 c 0.2077447,0.2405461 0.3061501,0.4920267 0.3061501,0.7544407 0,0.30615 -0.098405,0.568565 -0.2952162,0.765376 -0.1968108,0.19681 -0.4373573,0.30615 -0.7216396,0.30615 -0.2624143,0 -0.5248287,-0.10934 -0.7653753,-0.317084 L 5.5312141,9.3534798 C 5.3453373,9.1238672 5.2469319,8.8505189 5.2469319,8.5553027 Z"
   id="path4023"
   inkscape:connector-curvature="0"
   style="stroke-width:1.09339333;fill:#ff0000" /><path
   d="m 7.4337184,23.316112 c 0,-0.30615 0.1093394,-0.557631 0.3170841,-0.743508 0.1968108,-0.185877 0.4373573,-0.284282 0.7435074,-0.284282 h 2.8756241 l 3.400453,-3.192708 c 0.10934,-0.08747 0.229613,-0.08747 0.371754,0 l 3.455123,3.192708 h 3.028699 c 0.295217,0 0.546697,0.0984 0.754442,0.30615 0.207744,0.196811 0.317084,0.448291 0.317084,0.732574 0,0.295216 -0.10934,0.546696 -0.317084,0.754441 -0.207745,0.207745 -0.459225,0.317084 -0.754442,0.317084 h -3.695669 c -0.109339,0 -0.218679,-0.02187 -0.317084,-0.07654 l -2.635078,-2.482003 -2.61321,2.482003 c -0.08747,0.05467 -0.185877,0.07654 -0.30615,0.07654 H 8.4943099 c -0.2952162,0 -0.5466966,-0.109339 -0.7544413,-0.317084 C 7.5321238,23.862808 7.4337184,23.611328 7.4337184,23.316112 Z"
   id="path4021"
   inkscape:connector-curvature="0"
   style="stroke-width:1.09339333" /><path
   d="m 8.4396403,17.280581 c 0,1.060591 0.2296126,2.022777 0.6779038,2.886558 0.021868,0.131207 0.1202733,0.196811 0.2733483,0.196811 h 2.0555796 c 0.07654,0 0.131207,-0.0328 0.164009,-0.08747 0.0328,-0.0656 0.02187,-0.131207 -0.02187,-0.207744 -0.699772,-0.841913 -1.049658,-1.771298 -1.049658,-2.788153 0,-1.224601 0.437358,-2.274258 1.312072,-3.138039 0.874715,-0.863781 1.924373,-1.290204 3.159907,-1.290204 1.2246,0 2.263324,0.426423 3.127105,1.290204 0.86378,0.863781 1.301138,1.902504 1.301138,3.138039 0,1.027789 -0.349886,1.957174 -1.038724,2.788153 -0.04374,0.07654 -0.05467,0.142141 -0.0328,0.207744 0.02187,0.0656 0.07654,0.08747 0.164009,0.08747 h 2.077448 c 0.142141,0 0.229612,-0.0656 0.25148,-0.196811 0.481093,-0.841913 0.699772,-1.804099 0.699772,-2.886558 0,-0.885649 -0.174943,-1.738496 -0.524829,-2.536673 -0.349886,-0.809111 -0.820045,-1.497949 -1.399543,-2.088381 -0.579499,-0.579498 -1.279271,-1.049657 -2.088382,-1.399543 -0.809111,-0.349886 -1.651024,-0.513895 -2.536672,-0.513895 -0.885649,0 -1.738495,0.174943 -2.547606,0.513895 -0.809111,0.349886 -1.508883,0.809111 -2.099316,1.399543 -0.5904319,0.579499 -1.060591,1.27927 -1.4104769,2.088381 -0.3389519,0.798177 -0.5138948,1.64009 -0.5138948,2.536673 z"
   id="path4019"
   inkscape:connector-curvature="0"
   style="stroke-width:1.09339333;fill:#ff0000" /><path
   d="M 13.939409,7.4837773 V 4.9689727 c 0,-0.317084 0.0984,-0.5685645 0.30615,-0.7763092 0.207744,-0.2077447 0.470159,-0.3061501 0.776309,-0.3061501 0.30615,0 0.55763,0.098405 0.765375,0.3061501 0.207745,0.2077447 0.30615,0.481093 0.30615,0.7872432 v 2.5148045 c 0,0.3170841 -0.0984,0.5685645 -0.30615,0.7763093 -0.196811,0.1968107 -0.459225,0.3061501 -0.765375,0.3061501 -0.317084,0 -0.568565,-0.098405 -0.776309,-0.3061501 -0.207745,-0.2077448 -0.30615,-0.4701592 -0.30615,-0.7872432 z"
   id="path4017"
   inkscape:connector-curvature="0"
   style="stroke-width:1.09339333;fill:#ff0000" /><path
   d="m 20.882456,10.370335 c 0,-0.273348 0.0984,-0.5248286 0.295216,-0.7544412 l 1.771297,-1.8040985 c 0.207745,-0.2077448 0.470159,-0.3170841 0.765376,-0.3170841 0.295216,0 0.55763,0.1093393 0.754441,0.3170841 0.207745,0.2077447 0.30615,0.4592252 0.30615,0.7544413 0,0.3170841 -0.0984,0.5794985 -0.284282,0.7981771 l -1.836901,1.7603633 c -0.229613,0.207744 -0.492027,0.317084 -0.765375,0.317084 -0.295216,0 -0.535763,-0.09841 -0.72164,-0.306151 -0.185877,-0.207744 -0.284282,-0.459225 -0.284282,-0.765375 z"
   id="path4015"
   inkscape:connector-curvature="0"
   style="stroke-width:1.09339333;fill:#ff0000" /><path
   d="m 23.736212,17.280581 c 0,-0.295216 0.09841,-0.546697 0.295217,-0.754442 0.19681,-0.207744 0.437357,-0.317084 0.721639,-0.317084 h 2.569474 c 0.295217,0 0.546697,0.10934 0.754442,0.317084 0.207744,0.207745 0.317084,0.470159 0.317084,0.754442 0,0.30615 -0.10934,0.55763 -0.317084,0.776309 -0.207745,0.218679 -0.459225,0.328018 -0.754442,0.328018 h -2.569474 c -0.295216,0 -0.535763,-0.109339 -0.732573,-0.317084 -0.185877,-0.218679 -0.284283,-0.481093 -0.284283,-0.787243 z"
   id="path4004"
   inkscape:connector-curvature="0"
   style="stroke-width:1.09339333;fill:#ff0000" />
</svg>