<?xml version="1.0" encoding="UTF-8" standalone="no"?>
<!-- Generator: Adobe Illustrator 22.0.1, SVG Export Plug-In . SVG Version: 6.00 Build 0)  -->

<svg
   xmlns:dc="http://purl.org/dc/elements/1.1/"
   xmlns:cc="http://creativecommons.org/ns#"
   xmlns:rdf="http://www.w3.org/1999/02/22-rdf-syntax-ns#"
   xmlns:svg="http://www.w3.org/2000/svg"
   xmlns="http://www.w3.org/2000/svg"
   xmlns:sodipodi="http://sodipodi.sourceforge.net/DTD/sodipodi-0.dtd"
   xmlns:inkscape="http://www.inkscape.org/namespaces/inkscape"
   version="1.1"
   id="Layer_1"
   x="0px"
   y="0px"
   viewBox="0 0 30 30"
   style="enable-background:new 0 0 30 30;"
   xml:space="preserve"
   sodipodi:docname="clear-day.svg"
   inkscape:version="0.92.5 (2060ec1f9f, 2020-04-08)"
   inkscape:export-filename="W:\home\andrew\Programs\weatherboard\server\icons\clear-day.png"
   inkscape:export-xdpi="320"
   inkscape:export-ydpi="320"><metadata
   id="metadata3786"><rdf:RDF><cc:Work
       rdf:about=""><dc:format>image/svg+xml</dc:format><dc:type
         rdf:resource="http://purl.org/dc/dcmitype/StillImage" /><dc:title /></cc:Work></rdf:RDF></metadata><defs
   id="defs3784" /><sodipodi:namedview
   pagecolor="#ffffff"
   bordercolor="#666666"
   borderopacity="1"
   objecttolerance="10"
   gridtolerance="10"
   guidetolerance="10"
   inkscape:pageopacity="0"
   inkscape:pageshadow="2"
   inkscape:window-width="640"
   inkscape:window-height="480"
   id="namedview3782"
   showgrid="false"
   inkscape:zoom="22.250293"
   inkscape:cx="1.1097635"
   inkscape:cy="12.954516"
   inkscape:current-layer="Layer_1" />
<path
   d="m 2.618863,14.618351 c 0,-0.279574 0.093191,-0.524201 0.2912226,-0.722232 0.1980314,-0.186382 0.4426584,-0.279574 0.6989343,-0.279574 h 2.3763766 c 0.2679248,0 0.489254,0.09319 0.6756365,0.291223 0.1747336,0.198031 0.2679248,0.431009 0.2679248,0.710583 0,0.279574 -0.081542,0.512552 -0.2562759,0.710583 -0.1747336,0.198032 -0.4077116,0.291223 -0.6756365,0.291223 H 3.6206688 c -0.2679248,0 -0.5009029,-0.09319 -0.6989342,-0.291223 C 2.7237032,15.130903 2.618863,14.897925 2.618863,14.618351 Z m 3.3315868,8.072691 c 0,-0.267925 0.093191,-0.500903 0.2679248,-0.710583 l 1.712389,-1.665793 c 0.1747336,-0.186383 0.4077117,-0.267925 0.6872854,-0.267925 0.2795738,0 0.5125518,0.09319 0.6989343,0.267925 0.1863825,0.174733 0.2795737,0.396062 0.2795737,0.663987 0,0.279574 -0.093191,0.53585 -0.2795737,0.74553 l -1.6541445,1.654145 c -0.4776051,0.372765 -0.9552102,0.372765 -1.4328153,0 C 6.0436411,23.191945 5.9504498,22.958967 5.9504498,22.691042 Z m 0,-16.1220842 c 0,-0.2679248 0.093191,-0.5009029 0.2679248,-0.7105832 C 6.4513527,5.6603432 6.6959797,5.567152 6.9639045,5.567152 c 0.256276,0 0.489254,0.093191 0.6872854,0.2795737 l 1.6657934,1.712389 c 0.1863825,0.1747336 0.2795737,0.4077117 0.2795737,0.6872854 0,0.2795737 -0.093191,0.5125518 -0.2795737,0.6989343 -0.1863825,0.1863825 -0.4193605,0.2795737 -0.6989343,0.2795737 -0.2795737,0 -0.5125518,-0.093191 -0.6872854,-0.2795737 L 6.2300235,7.279541 C 6.0436411,7.0931585 5.9504498,6.8485315 5.9504498,6.5689578 Z m 2.9704708,8.0493932 c 0,-1.083348 0.2679248,-2.096803 0.8154233,-3.028715 C 10.283842,10.657723 11.017723,9.9121935 11.961285,9.364695 12.904846,8.8171965 13.906652,8.5492717 14.99,8.5492717 c 0.815423,0 1.5959,0.1630846 2.353079,0.489254 0.74553,0.3261693 1.397868,0.7571788 1.933718,1.3046773 0.547499,0.547499 0.978508,1.188188 1.293028,1.933718 0.314521,0.74553 0.477606,1.537656 0.477606,2.353079 0,1.094997 -0.267925,2.108452 -0.815424,3.040364 -0.547498,0.931913 -1.281379,1.665794 -2.213292,2.213292 -0.931912,0.547499 -1.945367,0.815423 -3.040364,0.815423 -1.094997,0 -2.108452,-0.267924 -3.040364,-0.815423 C 11.006075,19.336158 10.272194,18.602277 9.724695,17.670364 9.2004943,16.726803 8.9209206,15.713348 8.9209206,14.618351 Z m 1.9803134,0 c 0,1.141593 0.396063,2.108452 1.199838,2.912226 0.792125,0.803775 1.758984,1.211486 2.900577,1.211486 1.141593,0 2.108452,-0.407711 2.912226,-1.211486 0.803775,-0.803774 1.211486,-1.770633 1.211486,-2.912226 0,-1.118295 -0.407711,-2.073505 -1.211486,-2.877279 -0.803774,-0.792126 -1.770633,-1.188189 -2.912226,-1.188189 -1.129944,0 -2.096803,0.396063 -2.888929,1.188189 -0.815423,0.803774 -1.211486,1.758984 -1.211486,2.877279 z m 3.098609,9.062848 c 0,-0.279574 0.09319,-0.512552 0.291223,-0.698934 0.198031,-0.186383 0.431009,-0.279574 0.698934,-0.279574 0.279574,0 0.524201,0.09319 0.710583,0.279574 0.186383,0.186382 0.279574,0.41936 0.279574,0.698934 v 2.318132 c 0,0.279574 -0.09319,0.524201 -0.291223,0.722232 -0.198031,0.198032 -0.431009,0.291223 -0.698934,0.291223 -0.267925,0 -0.512552,-0.09319 -0.698934,-0.291223 -0.198032,-0.198031 -0.291223,-0.442658 -0.291223,-0.722232 z m 0,-18.0558025 V 3.2490199 c 0,-0.2679248 0.09319,-0.5009029 0.291223,-0.6989343 0.198031,-0.1980313 0.431009,-0.3028715 0.710583,-0.3028715 0.279574,0 0.500903,0.093191 0.698934,0.2912226 0.198032,0.1980314 0.291223,0.4310095 0.291223,0.6989343 v 2.3880255 c 0,0.2679248 -0.09319,0.489254 -0.291223,0.6756365 -0.198031,0.1863825 -0.431009,0.2679248 -0.698934,0.2679248 -0.267925,0 -0.512552,-0.093191 -0.698934,-0.2679248 C 14.116332,6.1262994 13.999843,5.8933213 13.999843,5.6253965 Z m 6.430196,15.3532565 c 0,-0.267925 0.09319,-0.489254 0.267924,-0.652339 0.174734,-0.186382 0.396063,-0.267924 0.652339,-0.267924 0.279574,0 0.512552,0.09319 0.698934,0.267924 l 1.70074,1.665794 c 0.186383,0.198031 0.279574,0.442658 0.279574,0.710583 0,0.267925 -0.09319,0.500903 -0.279574,0.687285 -0.465956,0.361117 -0.931912,0.361117 -1.397868,0 l -1.654145,-1.654144 c -0.174733,-0.20968 -0.267924,-0.454307 -0.267924,-0.757179 z m 0,-12.720604 c 0,-0.2912226 0.09319,-0.5242007 0.267924,-0.6872854 l 1.654145,-1.712389 c 0.198031,-0.1863824 0.431009,-0.2795737 0.687285,-0.2795737 0.279574,0 0.512552,0.093191 0.698935,0.2912226 0.198031,0.1980314 0.291222,0.4310095 0.291222,0.6989343 0,0.2912227 -0.09319,0.5358497 -0.279574,0.7222321 l -1.70074,1.6657934 c -0.20968,0.1863825 -0.442658,0.2795737 -0.698934,0.2795737 -0.267925,0 -0.477605,-0.093191 -0.652339,-0.2795737 C 20.52323,8.7706008 20.430039,8.5376228 20.430039,8.258049 Z m 2.632652,6.360302 c 0,-0.279574 0.09319,-0.512552 0.279574,-0.722232 0.186382,-0.186382 0.407711,-0.279574 0.663987,-0.279574 h 2.353079 c 0.267925,0 0.500903,0.10484 0.698934,0.302872 0.198032,0.198031 0.302872,0.431009 0.302872,0.698934 0,0.267925 -0.10484,0.500903 -0.302872,0.698934 -0.198031,0.198032 -0.431009,0.291223 -0.698934,0.291223 h -2.353079 c -0.267924,0 -0.500903,-0.09319 -0.675636,-0.291223 -0.174734,-0.198031 -0.267925,-0.41936 -0.267925,-0.698934 z"
   id="path3779"
   inkscape:connector-curvature="0"
   style="stroke-width:1.16489053;fill:#ff0000" />
</svg>