<?xml version="1.0" encoding="UTF-8" standalone="no"?>
<!-- Generator: Adobe Illustrator 22.0.1, SVG Export Plug-In . SVG Version: 6.00 Build 0)  -->

<svg
   xmlns:dc="http://purl.org/dc/elements/1.1/"
   xmlns:cc="http://creativecommons.org/ns#"
   xmlns:rdf="http://www.w3.org/1999/02/22-rdf-syntax-ns#"
   xmlns:svg="http://www.w3.org/2000/svg"
   xmlns="http://www.w3.org/2000/svg"
   xmlns:sodipodi="http://sodipodi.sourceforge.net/DTD/sodipodi-0.dtd"
   xmlns:inkscape="http://www.inkscape.org/namespaces/inkscape"
   version="1.1"
   id="Layer_1"
   x="0px"
   y="0px"
   viewBox="0 0 30 30"
   style="enable-background:new 0 0 30 30;"
   xml:space="preserve"
   sodipodi:docname="sunset.svg"
   inkscape:version="0.92.5 (2060ec1f9f, 2020-04-08)"
   inkscape:export-filename="W:\home\andrew\Programs\weatherboard\server\icons\sunset.png"
   inkscape:export-xdpi="160"
   inkscape:export-ydpi="160"><metadata
   id="metadata4043"><rdf:RDF><cc:Work
       rdf:about=""><dc:format>image/svg+xml</dc:format><dc:type
         rdf:resource="http://purl.org/dc/dcmitype/StillImage" /><dc:title></dc:title></cc:Work></rdf:RDF></metadata><defs
   id="defs4041" /><sodipodi:namedview
   pagecolor="#ffffff"
   bordercolor="#666666"
   borderopacity="1"
   objecttolerance="10"
   gridtolerance="10"
   guidetolerance="10"
   inkscape:pageopacity="0"
   inkscape:pageshadow="2"
   inkscape:window-width="640"
   inkscape:window-height="480"
   id="namedview4039"
   showgrid="false"
   inkscape:zoom="7.8666667"
   inkscape:cx="-4.0677966"
   inkscape:cy="15"
   inkscape:current-layer="Layer_1" />
<path
   style="stroke-width:1.08309376;fill:#ff0000"
   d="m 1.8724879,16.858452 c 0,-0.303266 0.1083094,-0.541547 0.3249282,-0.736504 0.1841259,-0.194957 0.4332375,-0.281604 0.7365037,-0.281604 h 2.5019467 c 0.2924353,0 0.5307159,0.09748 0.7256728,0.292435 0.1841259,0.194957 0.2816044,0.433238 0.2816044,0.725673 0,0.303266 -0.097479,0.563209 -0.2924353,0.768997 -0.1949569,0.205787 -0.4332376,0.314097 -0.7148419,0.314097 H 2.9447508 c -0.2924354,0 -0.5415469,-0.10831 -0.7473347,-0.324928 C 1.9807973,17.399999 1.8724879,17.150887 1.8724879,16.858452 Z"
   id="path4057" /><path
   style="stroke-width:1.08309376;fill:#ff0000"
   d="m 5.4358665,8.3453354 c 0,-0.3032663 0.086647,-0.5523778 0.2707734,-0.7365038 0.2166188,-0.2166187 0.4657303,-0.3249281 0.7581657,-0.3249281 0.3140971,0 0.5523778,0.1083094 0.7365037,0.3249281 l 1.7546119,1.7654429 c 0.4982232,0.4765612 0.4982232,0.9639535 0,1.4621765 -0.2057878,0.205788 -0.4332375,0.303266 -0.7040109,0.303266 -0.2382806,0 -0.4765613,-0.09748 -0.7365038,-0.303266 L 5.7174708,9.0818392 C 5.5333449,8.8868823 5.4358665,8.6377707 5.4358665,8.3453354 Z"
   id="path4055" /><path
   style="stroke-width:1.08309376"
   d="m 7.5695612,22.72882 c 0,-0.281604 0.1083094,-0.530716 0.3249281,-0.747334 0.1949569,-0.194957 0.4440685,-0.292436 0.7365038,-0.292436 h 3.4875619 c 0.11914,0 0.216619,0.02166 0.303266,0.08665 l 2.545271,2.404468 2.588594,-2.415299 c 0.07582,-0.05415 0.184126,-0.08665 0.314097,-0.08665 h 3.57421 c 0.292435,0 0.541546,0.09748 0.747334,0.303267 0.205788,0.205787 0.314097,0.454899 0.314097,0.736503 0,0.292436 -0.108309,0.541547 -0.314097,0.747335 -0.205788,0.205788 -0.454899,0.314097 -0.747334,0.314097 h -2.902692 l -3.400914,3.075987 c -0.129972,0.09748 -0.249112,0.09748 -0.357421,0 L 11.447037,23.779421 H 8.6309931 c -0.2924353,0 -0.5415469,-0.108309 -0.7473347,-0.314097 C 7.6778706,23.270367 7.5695612,23.021256 7.5695612,22.72882 Z"
   id="path4053" /><path
   style="stroke-width:1.08309376;fill:#ff0000"
   d="m 8.5876694,16.858452 c 0,1.072263 0.2057878,2.025385 0.6281943,2.837706 0.064986,0.11914 0.1624641,0.173295 0.2924354,0.173295 h 2.0253849 c 0.08665,0 0.140803,-0.02166 0.162465,-0.07582 0.02166,-0.05415 -0.01083,-0.11914 -0.07582,-0.194957 -0.639025,-0.801489 -0.963954,-1.722119 -0.963954,-2.740227 0,-1.191403 0.422407,-2.209511 1.278051,-3.043493 0.855644,-0.833983 1.884583,-1.256389 3.086817,-1.256389 1.191404,0 2.209512,0.422406 3.065156,1.256389 0.844813,0.844813 1.27805,1.85209 1.27805,3.032662 0,1.018108 -0.324928,1.938738 -0.963953,2.740227 -0.07582,0.07582 -0.09748,0.140803 -0.07582,0.194957 0.02166,0.05416 0.07582,0.07582 0.162465,0.07582 h 2.036216 c 0.140802,0 0.227449,-0.05416 0.259942,-0.173295 0.444069,-0.844813 0.671518,-1.797936 0.671518,-2.837706 0,-0.855644 -0.173295,-1.689626 -0.509054,-2.480285 -0.335753,-0.790658 -0.801483,-1.483838 -1.375523,-2.057878 -0.574039,-0.574039 -1.256389,-1.028939 -2.047047,-1.375528 -0.790658,-0.34659 -1.624641,-0.509055 -2.491116,-0.509055 -0.866475,0 -1.700457,0.173296 -2.491115,0.509055 -0.790659,0.346589 -1.473008,0.801489 -2.047048,1.375528 -0.5740393,0.57404 -1.0289387,1.256389 -1.3755287,2.057878 -0.34659,0.80149 -0.5307159,1.635472 -0.5307159,2.491116 z"
   id="path4051" /><path
   style="stroke-width:1.08309376;fill:#ff0000"
   d="M 13.959815,7.3163963 V 4.7927878 c 0,-0.2924353 0.108309,-0.5415469 0.314097,-0.7473347 0.205788,-0.2057878 0.454899,-0.3140972 0.747334,-0.3140972 0.292436,0 0.541547,0.1083094 0.747335,0.3140972 0.205788,0.2057878 0.314097,0.4548994 0.314097,0.7473347 v 2.5127776 c 0,0.2924353 -0.108309,0.5415469 -0.314097,0.7473347 -0.205788,0.2057878 -0.454899,0.3140972 -0.747335,0.3140972 -0.292435,0 -0.541546,-0.1083094 -0.747334,-0.3140972 C 14.057293,7.8471123 13.959815,7.6088316 13.959815,7.3163963 Z"
   id="path4049" /><path
   style="stroke-width:1.08309376;fill:#ff0000"
   d="m 20.750812,10.110778 c 0,-0.303266 0.09748,-0.5523776 0.281605,-0.7256726 L 22.79786,7.6196626 c 0.173295,-0.2166188 0.422406,-0.3249282 0.736504,-0.3249282 0.292435,0 0.541546,0.1083094 0.736503,0.3140972 0.194957,0.2057878 0.292436,0.4548994 0.292436,0.7473347 0,0.3032663 -0.08665,0.5523779 -0.270774,0.7365038 l -1.797936,1.7654429 c -0.249111,0.205788 -0.498223,0.303266 -0.747334,0.303266 -0.281605,0 -0.519885,-0.09748 -0.714842,-0.303266 -0.184126,-0.205788 -0.281605,-0.454899 -0.281605,-0.747335 z"
   id="path4047" /><path
   style="stroke-width:1.08309376;fill:#ff0000"
   d="m 23.556025,16.858452 c 0,-0.292435 0.09748,-0.530716 0.281605,-0.725673 0.184126,-0.194957 0.433237,-0.292435 0.725673,-0.292435 h 2.512777 c 0.292435,0 0.541547,0.09748 0.747335,0.292435 0.205788,0.194957 0.314097,0.433238 0.314097,0.725673 0,0.292435 -0.108309,0.541547 -0.314097,0.758166 -0.205788,0.216618 -0.4549,0.324928 -0.747335,0.324928 h -2.512777 c -0.281605,0 -0.519885,-0.10831 -0.714842,-0.314097 -0.194957,-0.205788 -0.292436,-0.465731 -0.292436,-0.768997 z"
   id="path4036" />
</svg>